<svg width="15" height="15" viewBox="0 0 15 15" fill="none" xmlns="http://www.w3.org/2000/svg">
<path d="M1 5.33333H14M3.88889 1V2.44444M11.1111 1V2.44444M3.16667 7.5H4.61111M6.77778 7.5H8.22222M10.3889 7.5H11.8333M3.16667 9.66667H4.61111M6.77778 9.66667H8.22222M10.3889 9.66667H11.8333M3.16667 11.8333H4.61111M6.77778 11.8333H8.22222M10.3889 11.8333H11.8333M3.31111 14H11.6889C12.4978 14 12.9024 14 13.2113 13.8426C13.4831 13.7041 13.7041 13.4831 13.8426 13.2113C14 12.9024 14 12.4978 14 11.6889V4.75556C14 3.94659 14 3.54211 13.8426 3.23313C13.7041 2.96133 13.4831 2.74036 13.2113 2.60188C12.9024 2.44444 12.4978 2.44444 11.6889 2.44444H3.31111C2.50215 2.44444 2.09766 2.44444 1.78868 2.60188C1.51689 2.74036 1.29592 2.96133 1.15744 3.23313C1 3.54211 1 3.94659 1 4.75556V11.6889C1 12.4978 1 12.9024 1.15744 13.2113C1.29592 13.4831 1.51689 13.7041 1.78868 13.8426C2.09766 14 2.50214 14 3.31111 14Z" stroke="#B2B6BA" stroke-linecap="round"/>
</svg>
