<svg width="59" height="59" viewBox="0 0 59 59" fill="none" xmlns="http://www.w3.org/2000/svg">
<path d="M7.31963 23.798C6.83959 25.6667 6.59743 27.5886 6.59891 29.518C6.59891 31.4914 6.85059 33.4076 7.31963 35.238H15.4649C15.0793 31.4344 15.0793 27.6016 15.4649 23.798H7.31963ZM9.65911 18.078H16.3687C17.1294 14.5973 18.2277 11.4799 19.5747 8.88593C15.4225 10.8863 11.9677 14.0889 9.65911 18.078ZM51.6382 23.798H43.4929C43.8785 27.6016 43.8785 31.4344 43.4929 35.238H51.6382C52.6011 31.4854 52.6011 27.5505 51.6382 23.798ZM49.2987 18.078C46.9901 14.0889 43.5353 10.8863 39.3831 8.88593C40.733 11.4799 41.8284 14.5973 42.5891 18.078H49.2987ZM21.2192 23.798C21.0049 25.6971 20.898 27.6068 20.8989 29.518C20.8989 31.4771 21.0076 33.3933 21.2192 35.238H37.7386C38.1693 31.4368 38.1693 27.5991 37.7386 23.798H21.2192ZM22.2431 18.078H36.7147C36.1942 15.9281 35.4434 13.8406 34.4753 11.8517C32.6792 8.26245 30.7573 6.63797 29.4789 6.63797C28.1976 6.63797 26.2786 8.26245 24.4825 11.8517C23.5816 13.6593 22.8237 15.7614 22.2431 18.078ZM9.65911 40.958C11.9677 44.947 15.4225 48.1497 19.5747 50.15C18.2248 47.556 17.1294 44.4386 16.3687 40.958H9.65911ZM49.2987 40.958H42.5891C41.8284 44.4386 40.7301 47.556 39.3831 50.15C43.5353 48.1497 46.9901 44.947 49.2987 40.958ZM22.2431 40.958C22.8237 43.2746 23.5816 45.3767 24.4825 47.1842C26.2786 50.7735 28.2005 52.398 29.4789 52.398C30.7602 52.398 32.6792 50.7735 34.4753 47.1842C35.3762 45.3767 36.1341 43.2746 36.7147 40.958H22.2431ZM29.4789 58.118C13.6831 58.118 0.878906 45.3138 0.878906 29.518C0.878906 13.7222 13.6831 0.917969 29.4789 0.917969C45.2747 0.917969 58.0789 13.7222 58.0789 29.518C58.0789 45.3138 45.2747 58.118 29.4789 58.118Z" fill="url(#paint0_linear_10351_2503)"/>
<defs>
<linearGradient id="paint0_linear_10351_2503" x1="2.29602" y1="32.8827" x2="61.0855" y2="33.2703" gradientUnits="userSpaceOnUse">
<stop stop-color="#CE6800"/>
<stop offset="1" stop-color="#9747FF"/>
</linearGradient>
</defs>
</svg>
