<svg width="70" height="56" viewBox="0 0 70 56" fill="none" xmlns="http://www.w3.org/2000/svg">
<g opacity="0.2">
<path d="M33.024 14.7254C33.024 17.8284 31.7913 20.8044 29.5972 22.9985C27.403 25.1927 24.4271 26.4254 21.324 26.4254C18.221 26.4254 15.245 25.1927 13.0509 22.9985C10.8567 20.8044 9.62402 17.8284 9.62402 14.7254C9.62402 11.6224 10.8567 8.64642 13.0509 6.45224C15.245 4.25807 18.221 3.02539 21.324 3.02539C24.4271 3.02539 27.403 4.25807 29.5972 6.45224C31.7913 8.64642 33.024 11.6224 33.024 14.7254Z" fill="url(#paint0_linear_7233_12972)"/>
<path fill-rule="evenodd" clip-rule="evenodd" d="M21.324 18.6254C22.3584 18.6254 23.3503 18.2145 24.0817 17.4831C24.8131 16.7517 25.224 15.7597 25.224 14.7254C25.224 13.691 24.8131 12.6991 24.0817 11.9677C23.3503 11.2363 22.3584 10.8254 21.324 10.8254C20.2897 10.8254 19.2977 11.2363 18.5663 11.9677C17.8349 12.6991 17.424 13.691 17.424 14.7254C17.424 15.7597 17.8349 16.7517 18.5663 17.4831C19.2977 18.2145 20.2897 18.6254 21.324 18.6254ZM21.324 26.4254C22.8605 26.4254 24.3819 26.1228 25.8014 25.5348C27.2209 24.9468 28.5107 24.085 29.5972 22.9985C30.6836 21.9121 31.5454 20.6223 32.1334 19.2028C32.7214 17.7833 33.024 16.2619 33.024 14.7254C33.024 13.1889 32.7214 11.6675 32.1334 10.248C31.5454 8.82849 30.6836 7.53869 29.5972 6.45224C28.5107 5.3658 27.2209 4.50398 25.8014 3.916C24.3819 3.32802 22.8605 3.02539 21.324 3.02539C18.221 3.02539 15.245 4.25807 13.0509 6.45224C10.8567 8.64642 9.62402 11.6224 9.62402 14.7254C9.62402 17.8284 10.8567 20.8044 13.0509 22.9985C15.245 25.1927 18.221 26.4254 21.324 26.4254Z" fill="url(#paint1_linear_7233_12972)"/>
<path fill-rule="evenodd" clip-rule="evenodd" d="M21.5191 29.3508C19.9676 29.3508 18.4797 29.9671 17.3826 31.0642C16.2855 32.1613 15.6691 33.6493 15.6691 35.2008V41.0508C15.6691 42.0851 15.2582 43.0771 14.5269 43.8085C13.7955 44.5399 12.8035 44.9508 11.7691 44.9508C10.7348 44.9508 9.74282 44.5399 9.01142 43.8085C8.28003 43.0771 7.86914 42.0851 7.86914 41.0508V35.2008C7.86914 31.5806 9.30726 28.1086 11.8671 25.5488C14.427 22.9889 17.8989 21.5508 21.5191 21.5508C25.1393 21.5508 28.6113 22.9889 31.1711 25.5488C33.731 28.1086 35.1691 31.5806 35.1691 35.2008V37.1508C35.1691 38.1851 34.7582 39.1771 34.0269 39.9085C33.2955 40.6399 32.3035 41.0508 31.2691 41.0508C30.2348 41.0508 29.2428 40.6399 28.5114 39.9085C27.78 39.1771 27.3691 38.1851 27.3691 37.1508V35.2008C27.3691 33.6493 26.7528 32.1613 25.6557 31.0642C24.5586 29.9671 23.0707 29.3508 21.5191 29.3508Z" fill="url(#paint2_linear_7233_12972)"/>
<path d="M44.7246 14.7254C44.7246 17.8284 45.9573 20.8044 48.1515 22.9985C50.3456 25.1927 53.3216 26.4254 56.4246 26.4254C59.5276 26.4254 62.5036 25.1927 64.6978 22.9985C66.8919 20.8044 68.1246 17.8284 68.1246 14.7254C68.1246 11.6224 66.8919 8.64642 64.6978 6.45224C62.5036 4.25807 59.5276 3.02539 56.4246 3.02539C53.3216 3.02539 50.3456 4.25807 48.1515 6.45224C45.9573 8.64642 44.7246 11.6224 44.7246 14.7254Z" fill="url(#paint3_linear_7233_12972)"/>
<path fill-rule="evenodd" clip-rule="evenodd" d="M56.4246 18.6254C55.3903 18.6254 54.3983 18.2145 53.6669 17.4831C52.9355 16.7517 52.5246 15.7597 52.5246 14.7254C52.5246 13.691 52.9355 12.6991 53.6669 11.9677C54.3983 11.2363 55.3903 10.8254 56.4246 10.8254C57.459 10.8254 58.4509 11.2363 59.1823 11.9677C59.9137 12.6991 60.3246 13.691 60.3246 14.7254C60.3246 15.7597 59.9137 16.7517 59.1823 17.4831C58.4509 18.2145 57.459 18.6254 56.4246 18.6254ZM56.4246 26.4254C54.8881 26.4254 53.3667 26.1228 51.9472 25.5348C50.5277 24.9468 49.2379 24.085 48.1515 22.9985C47.065 21.9121 46.2032 20.6223 45.6152 19.2028C45.0272 17.7833 44.7246 16.2619 44.7246 14.7254C44.7246 13.1889 45.0272 11.6675 45.6152 10.248C46.2032 8.82849 47.065 7.53869 48.1515 6.45224C49.2379 5.3658 50.5277 4.50398 51.9472 3.916C53.3667 3.32802 54.8881 3.02539 56.4246 3.02539C59.5276 3.02539 62.5036 4.25807 64.6978 6.45224C66.8919 8.64642 68.1246 11.6224 68.1246 14.7254C68.1246 17.8284 66.8919 20.8044 64.6978 22.9985C62.5036 25.1927 59.5276 26.4254 56.4246 26.4254Z" fill="url(#paint4_linear_7233_12972)"/>
<path fill-rule="evenodd" clip-rule="evenodd" d="M56.2291 29.3508C57.7806 29.3508 59.2686 29.9671 60.3657 31.0642C61.4628 32.1613 62.0791 33.6493 62.0791 35.2008V41.0508C62.0791 42.0851 62.49 43.0771 63.2214 43.8085C63.9528 44.5399 64.9448 44.9508 65.9791 44.9508C67.0134 44.9508 68.0054 44.5399 68.7368 43.8085C69.4682 43.0771 69.8791 42.0851 69.8791 41.0508V35.2008C69.8791 31.5806 68.441 28.1086 65.8811 25.5488C63.3212 22.9889 59.8493 21.5508 56.2291 21.5508C52.6089 21.5508 49.137 22.9889 46.5771 25.5488C44.0172 28.1086 42.5791 31.5806 42.5791 35.2008V37.1508C42.5791 38.1851 42.99 39.1771 43.7214 39.9085C44.4528 40.6399 45.4448 41.0508 46.4791 41.0508C47.5134 41.0508 48.5054 40.6399 49.2368 39.9085C49.9682 39.1771 50.3791 38.1851 50.3791 37.1508V35.2008C50.3791 33.6493 50.9954 32.1613 52.0925 31.0642C53.1896 29.9671 54.6776 29.3508 56.2291 29.3508Z" fill="url(#paint5_linear_7233_12972)"/>
<path fill-rule="evenodd" clip-rule="evenodd" d="M39.0689 40.0754C37.5174 40.0754 36.0295 40.6917 34.9324 41.7888C33.8353 42.8859 33.2189 44.3739 33.2189 45.9254V51.7754C33.2189 52.8097 32.8081 53.8017 32.0767 54.5331C31.3453 55.2645 30.3533 55.6754 29.3189 55.6754C28.2846 55.6754 27.2926 55.2645 26.5612 54.5331C25.8298 53.8017 25.4189 52.8097 25.4189 51.7754V45.9254C25.4189 42.3052 26.8571 38.8333 29.4169 36.2734C31.9768 33.7135 35.4487 32.2754 39.0689 32.2754C42.6891 32.2754 46.1611 33.7135 48.721 36.2734C51.2808 38.8333 52.7189 42.3052 52.7189 45.9254V51.7754C52.7189 52.8097 52.3081 53.8017 51.5767 54.5331C50.8453 55.2645 49.8533 55.6754 48.8189 55.6754C47.7846 55.6754 46.7926 55.2645 46.0612 54.5331C45.3298 53.8017 44.9189 52.8097 44.9189 51.7754V45.9254C44.9189 44.3739 44.3026 42.8859 43.2055 41.7888C42.1084 40.6917 40.6205 40.0754 39.0689 40.0754Z" fill="url(#paint6_linear_7233_12972)"/>
<path d="M50.5738 25.45C50.5738 28.553 49.3412 31.529 47.147 33.7232C44.9528 35.9173 41.9769 37.15 38.8738 37.15C35.7708 37.15 32.7949 35.9173 30.6007 33.7232C28.4065 31.529 27.1738 28.553 27.1738 25.45C27.1738 22.347 28.4065 19.371 30.6007 17.1768C32.7949 14.9827 35.7708 13.75 38.8738 13.75C41.9769 13.75 44.9528 14.9827 47.147 17.1768C49.3412 19.371 50.5738 22.347 50.5738 25.45Z" fill="url(#paint7_linear_7233_12972)"/>
<path fill-rule="evenodd" clip-rule="evenodd" d="M38.8738 29.35C39.9082 29.35 40.9002 28.9391 41.6315 28.2077C42.3629 27.4763 42.7738 26.4843 42.7738 25.45C42.7738 24.4157 42.3629 23.4237 41.6315 22.6923C40.9002 21.9609 39.9082 21.55 38.8738 21.55C37.8395 21.55 36.8475 21.9609 36.1161 22.6923C35.3847 23.4237 34.9738 24.4157 34.9738 25.45C34.9738 26.4843 35.3847 27.4763 36.1161 28.2077C36.8475 28.9391 37.8395 29.35 38.8738 29.35ZM38.8738 37.15C41.9769 37.15 44.9528 35.9173 47.147 33.7232C49.3412 31.529 50.5738 28.553 50.5738 25.45C50.5738 22.347 49.3412 19.371 47.147 17.1768C44.9528 14.9827 41.9769 13.75 38.8738 13.75C35.7708 13.75 32.7949 14.9827 30.6007 17.1768C28.4065 19.371 27.1738 22.347 27.1738 25.45C27.1738 28.553 28.4065 31.529 30.6007 33.7232C32.7949 35.9173 35.7708 37.15 38.8738 37.15Z" fill="url(#paint8_linear_7233_12972)"/>
<path d="M11.5742 29.3496H31.0742V44.9496H11.5742V29.3496ZM46.6742 29.3496H66.1742V44.9496H46.6742V29.3496Z" fill="url(#paint9_linear_7233_12972)"/>
<path d="M31.074 37.1504H46.674L48.624 55.6754H29.124L31.074 37.1504Z" fill="url(#paint10_linear_7233_12972)"/>
</g>
<path fill-rule="evenodd" clip-rule="evenodd" d="M14.4998 19.5996C16.5685 19.5996 18.5525 18.7778 20.0152 17.315C21.478 15.8523 22.2998 13.8683 22.2998 11.7996C22.2998 9.73092 21.478 7.74696 20.0152 6.28418C18.5525 4.82139 16.5685 3.99961 14.4998 3.99961C12.4311 3.99961 10.4472 4.82139 8.98437 6.28418C7.52159 7.74696 6.6998 9.73092 6.6998 11.7996C6.6998 13.8683 7.52159 15.8523 8.98437 17.315C10.4472 18.7778 12.4311 19.5996 14.4998 19.5996ZM14.4998 23.4996C16.0363 23.4996 17.5577 23.197 18.9772 22.609C20.3967 22.021 21.6865 21.1592 22.773 20.0728C23.8594 18.9863 24.7212 17.6965 25.3092 16.277C25.8972 14.8575 26.1998 13.3361 26.1998 11.7996C26.1998 10.2631 25.8972 8.74172 25.3092 7.32221C24.7212 5.9027 23.8594 4.61291 22.773 3.52646C21.6865 2.44001 20.3967 1.5782 18.9772 0.99022C17.5577 0.40224 16.0363 0.0996094 14.4998 0.0996094C11.3968 0.0996094 8.42083 1.33228 6.22666 3.52646C4.03248 5.72064 2.7998 8.69658 2.7998 11.7996C2.7998 14.9026 4.03248 17.8786 6.22666 20.0728C8.42083 22.2669 11.3968 23.4996 14.4998 23.4996Z" fill="url(#paint11_linear_7233_12972)"/>
<path fill-rule="evenodd" clip-rule="evenodd" d="M10.0302 19.1941C10.2118 19.3752 10.3559 19.5904 10.4542 19.8273C10.5525 20.0642 10.6031 20.3182 10.6031 20.5747C10.6031 20.8312 10.5525 21.0851 10.4542 21.322C10.3559 21.5589 10.2118 21.7741 10.0302 21.9553L8.71201 23.2696C6.1752 25.8071 4.74994 29.2482 4.74961 32.8363V40.0747C4.74961 40.5918 4.54416 41.0878 4.17847 41.4535C3.81277 41.8192 3.31678 42.0247 2.79961 42.0247C2.28244 42.0247 1.78645 41.8192 1.42075 41.4535C1.05506 41.0878 0.849609 40.5918 0.849609 40.0747V32.8363C0.850162 28.2139 2.68645 23.781 5.95471 20.5123L7.26901 19.1941C7.45015 19.0125 7.66533 18.8684 7.90224 18.7701C8.13914 18.6718 8.39312 18.6212 8.64961 18.6212C8.9061 18.6212 9.16007 18.6718 9.39698 18.7701C9.63389 18.8684 9.84907 19.0125 10.0302 19.1941ZM56.019 18.0241C55.8374 18.2052 55.6933 18.4204 55.595 18.6573C55.4967 18.8942 55.4461 19.1482 55.4461 19.4047C55.4461 19.6611 55.4967 19.9151 55.595 20.152C55.6933 20.3889 55.8374 20.6041 56.019 20.7853L57.3372 22.0996C58.5935 23.3559 59.59 24.8474 60.2699 26.4888C60.9498 28.1303 61.2997 29.8896 61.2996 31.6663V40.0747C61.2996 40.5918 61.5051 41.0878 61.8707 41.4535C62.2364 41.8192 62.7324 42.0247 63.2496 42.0247C63.7668 42.0247 64.2628 41.8192 64.6285 41.4535C64.9942 41.0878 65.1996 40.5918 65.1996 40.0747V31.6663C65.1991 27.0439 63.3628 22.611 60.0945 19.3423L58.7802 18.0241C58.5991 17.8425 58.3839 17.6984 58.147 17.6001C57.9101 17.5018 57.6561 17.4512 57.3996 17.4512C57.1431 17.4512 56.8891 17.5018 56.6522 17.6001C56.4153 17.6984 56.2001 17.8425 56.019 18.0241Z" fill="url(#paint12_linear_7233_12972)"/>
<path fill-rule="evenodd" clip-rule="evenodd" d="M49.5994 19.5996C47.5307 19.5996 45.5468 18.7778 44.084 17.315C42.6212 15.8523 41.7994 13.8683 41.7994 11.7996C41.7994 9.73092 42.6212 7.74696 44.084 6.28418C45.5468 4.82139 47.5307 3.99961 49.5994 3.99961C51.6681 3.99961 53.6521 4.82139 55.1148 6.28418C56.5776 7.74696 57.3994 9.73092 57.3994 11.7996C57.3994 13.8683 56.5776 15.8523 55.1148 17.315C53.6521 18.7778 51.6681 19.5996 49.5994 19.5996ZM49.5994 23.4996C48.0629 23.4996 46.5415 23.197 45.122 22.609C43.7025 22.021 42.4127 21.1592 41.3263 20.0728C40.2398 18.9863 39.378 17.6965 38.79 16.277C38.202 14.8575 37.8994 13.3361 37.8994 11.7996C37.8994 10.2631 38.202 8.74172 38.79 7.32221C39.378 5.9027 40.2398 4.61291 41.3263 3.52646C42.4127 2.44002 43.7025 1.5782 45.122 0.99022C46.5415 0.40224 48.0629 0.0996094 49.5994 0.0996094C52.7024 0.0996094 55.6784 1.33228 57.8726 3.52646C60.0667 5.72064 61.2994 8.69658 61.2994 11.7996C61.2994 14.9026 60.0667 17.8786 57.8726 20.0728C55.6784 22.2669 52.7024 23.4996 49.5994 23.4996ZM32.0494 36.1746C29.4636 36.1746 26.9836 37.2018 25.1551 39.0303C23.3266 40.8588 22.2994 43.3387 22.2994 45.9246V50.9946C22.2994 51.5118 22.094 52.0078 21.7283 52.3735C21.3626 52.7392 20.8666 52.9446 20.3494 52.9446C19.8322 52.9446 19.3363 52.7392 18.9706 52.3735C18.6049 52.0078 18.3994 51.5118 18.3994 50.9946V45.9246C18.3994 42.3044 19.8375 38.8325 22.3974 36.2726C24.9573 33.7127 28.4292 32.2746 32.0494 32.2746C35.6696 32.2746 39.1416 33.7127 41.7014 36.2726C44.2613 38.8325 45.6994 42.3044 45.6994 45.9246V50.9946C45.6994 51.5118 45.494 52.0078 45.1283 52.3735C44.7626 52.7392 44.2666 52.9446 43.7494 52.9446C43.2322 52.9446 42.7362 52.7392 42.3706 52.3735C42.0049 52.0078 41.7994 51.5118 41.7994 50.9946V45.9246C41.7994 44.6442 41.5472 43.3764 41.0572 42.1934C40.5673 41.0105 39.8491 39.9357 38.9437 39.0303C38.0383 38.1249 36.9635 37.4068 35.7806 36.9168C34.5977 36.4268 33.3298 36.1746 32.0494 36.1746Z" fill="url(#paint13_linear_7233_12972)"/>
<path fill-rule="evenodd" clip-rule="evenodd" d="M32.0496 30.3242C34.1183 30.3242 36.1023 29.5024 37.565 28.0396C39.0278 26.5769 39.8496 24.5929 39.8496 22.5242C39.8496 20.4555 39.0278 18.4716 37.565 17.0088C36.1023 15.546 34.1183 14.7242 32.0496 14.7242C29.9809 14.7242 27.997 15.546 26.5342 17.0088C25.0714 18.4716 24.2496 20.4555 24.2496 22.5242C24.2496 24.5929 25.0714 26.5769 26.5342 28.0396C27.997 29.5024 29.9809 30.3242 32.0496 30.3242ZM32.0496 34.2242C35.1526 34.2242 38.1286 32.9915 40.3228 30.7974C42.5169 28.6032 43.7496 25.6273 43.7496 22.5242C43.7496 19.4212 42.5169 16.4452 40.3228 14.2511C38.1286 12.0569 35.1526 10.8242 32.0496 10.8242C28.9466 10.8242 25.9706 12.0569 23.7765 14.2511C21.5823 16.4452 20.3496 19.4212 20.3496 22.5242C20.3496 25.6273 21.5823 28.6032 23.7765 30.7974C25.9706 32.9915 28.9466 34.2242 32.0496 34.2242Z" fill="url(#paint14_linear_7233_12972)"/>
<defs>
<linearGradient id="paint0_linear_7233_12972" x1="10.2038" y1="16.1019" x2="34.254" y2="16.2604" gradientUnits="userSpaceOnUse">
<stop stop-color="#CE6800"/>
<stop offset="1" stop-color="#9747FF"/>
</linearGradient>
<linearGradient id="paint1_linear_7233_12972" x1="10.2038" y1="16.1019" x2="34.254" y2="16.2604" gradientUnits="userSpaceOnUse">
<stop stop-color="#CE6800"/>
<stop offset="1" stop-color="#9747FF"/>
</linearGradient>
<linearGradient id="paint2_linear_7233_12972" x1="8.54549" y1="34.6273" x2="36.6037" y2="34.8431" gradientUnits="userSpaceOnUse">
<stop stop-color="#CE6800"/>
<stop offset="1" stop-color="#9747FF"/>
</linearGradient>
<linearGradient id="paint3_linear_7233_12972" x1="45.3043" y1="16.1019" x2="69.3546" y2="16.2604" gradientUnits="userSpaceOnUse">
<stop stop-color="#CE6800"/>
<stop offset="1" stop-color="#9747FF"/>
</linearGradient>
<linearGradient id="paint4_linear_7233_12972" x1="45.3043" y1="16.1019" x2="69.3546" y2="16.2604" gradientUnits="userSpaceOnUse">
<stop stop-color="#CE6800"/>
<stop offset="1" stop-color="#9747FF"/>
</linearGradient>
<linearGradient id="paint5_linear_7233_12972" x1="43.2555" y1="34.6273" x2="71.3136" y2="34.8431" gradientUnits="userSpaceOnUse">
<stop stop-color="#CE6800"/>
<stop offset="1" stop-color="#9747FF"/>
</linearGradient>
<linearGradient id="paint6_linear_7233_12972" x1="26.0953" y1="45.3519" x2="54.1535" y2="45.5677" gradientUnits="userSpaceOnUse">
<stop stop-color="#CE6800"/>
<stop offset="1" stop-color="#9747FF"/>
</linearGradient>
<linearGradient id="paint7_linear_7233_12972" x1="27.7536" y1="26.8265" x2="51.8038" y2="26.985" gradientUnits="userSpaceOnUse">
<stop stop-color="#CE6800"/>
<stop offset="1" stop-color="#9747FF"/>
</linearGradient>
<linearGradient id="paint8_linear_7233_12972" x1="27.7536" y1="26.8265" x2="51.8038" y2="26.985" gradientUnits="userSpaceOnUse">
<stop stop-color="#CE6800"/>
<stop offset="1" stop-color="#9747FF"/>
</linearGradient>
<linearGradient id="paint9_linear_7233_12972" x1="12.9269" y1="38.0673" x2="69.0167" y2="39.3615" gradientUnits="userSpaceOnUse">
<stop stop-color="#CE6800"/>
<stop offset="1" stop-color="#9747FF"/>
</linearGradient>
<linearGradient id="paint10_linear_7233_12972" x1="29.6071" y1="47.5026" x2="49.6489" y2="47.6417" gradientUnits="userSpaceOnUse">
<stop stop-color="#CE6800"/>
<stop offset="1" stop-color="#9747FF"/>
</linearGradient>
<linearGradient id="paint11_linear_7233_12972" x1="3.37953" y1="13.1761" x2="27.4298" y2="13.3347" gradientUnits="userSpaceOnUse">
<stop stop-color="#CE6800"/>
<stop offset="1" stop-color="#9747FF"/>
</linearGradient>
<linearGradient id="paint12_linear_7233_12972" x1="2.44387" y1="31.1834" x2="68.5652" y2="32.325" gradientUnits="userSpaceOnUse">
<stop stop-color="#CE6800"/>
<stop offset="1" stop-color="#9747FF"/>
</linearGradient>
<linearGradient id="paint13_linear_7233_12972" x1="19.4623" y1="29.6307" x2="63.555" y2="29.8667" gradientUnits="userSpaceOnUse">
<stop stop-color="#CE6800"/>
<stop offset="1" stop-color="#9747FF"/>
</linearGradient>
<linearGradient id="paint14_linear_7233_12972" x1="20.9293" y1="23.9007" x2="44.9796" y2="24.0593" gradientUnits="userSpaceOnUse">
<stop stop-color="#CE6800"/>
<stop offset="1" stop-color="#9747FF"/>
</linearGradient>
</defs>
</svg>
