<svg width="32" height="30" viewBox="0 0 32 30" fill="none" xmlns="http://www.w3.org/2000/svg">
<path d="M24.1211 11.8711C25.0001 10.9921 25.0001 9.57906 25.0001 6.75004C25.0001 3.92102 25.0001 2.50801 24.1211 1.62901M24.1211 11.8711C23.2421 12.7501 21.8291 12.7501 19.0001 12.7501H13C10.171 12.7501 8.75801 12.7501 7.87901 11.8711M24.1211 1.62901C23.2421 0.75 21.8291 0.75 19.0001 0.75H13C10.171 0.75 8.75801 0.75 7.87901 1.62901M7.87901 1.62901C7 2.50801 7 3.92102 7 6.75004C7 9.57906 7 10.9921 7.87901 11.8711M17.5001 6.75004C17.5001 7.14787 17.342 7.5294 17.0607 7.81071C16.7794 8.09202 16.3979 8.25005 16.0001 8.25005C15.6022 8.25005 15.2207 8.09202 14.9394 7.81071C14.6581 7.5294 14.5001 7.14787 14.5001 6.75004C14.5001 6.35222 14.6581 5.97068 14.9394 5.68938C15.2207 5.40807 15.6022 5.25003 16.0001 5.25003C16.3979 5.25003 16.7794 5.40807 17.0607 5.68938C17.342 5.97068 17.5001 6.35222 17.5001 6.75004Z" stroke="#EB5757"/>
<path d="M25.0001 5.25003C23.8067 5.25003 22.6621 4.77592 21.8181 3.932C20.9742 3.08808 20.5001 1.94348 20.5001 0.75M25.0001 8.25005C23.8067 8.25005 22.6621 8.72416 21.8181 9.56808C20.9742 10.412 20.5001 11.5566 20.5001 12.7501M7.00001 5.25003C8.19349 5.25003 9.3381 4.77592 10.182 3.932C11.0259 3.08808 11.5 1.94348 11.5 0.75M7.00001 8.25005C8.19349 8.25005 9.3381 8.72416 10.182 9.56808C11.0259 10.412 11.5 11.5566 11.5 12.7501M5.5 26.8322H8.89002C10.405 26.8322 11.9395 26.9912 13.4141 27.2942C16.0466 27.835 18.7552 27.895 21.4091 27.4712C22.7111 27.2612 23.9891 26.9387 25.1471 26.3807C26.1911 25.8752 27.4707 25.1657 28.3302 24.3692C29.1882 23.5742 30.0822 22.2737 30.7152 21.2566C31.2612 20.3836 30.9972 19.3141 30.1362 18.6646C29.6524 18.3127 29.0695 18.1231 28.4712 18.1231C27.8729 18.1231 27.29 18.3127 26.8062 18.6646L24.0956 20.7121C23.0456 21.5072 21.8981 22.2377 20.5316 22.4552C20.3666 22.4807 20.1941 22.5047 20.0141 22.5257M20.0141 22.5257C19.9591 22.532 19.9041 22.538 19.8491 22.5437M20.0141 22.5257C20.2542 22.4607 20.4743 22.337 20.6546 22.1657C20.8806 21.9701 21.0652 21.7313 21.1974 21.4632C21.3297 21.1952 21.4069 20.9034 21.4245 20.605C21.4421 20.3067 21.3998 20.0078 21.3 19.7261C21.2003 19.4443 21.0451 19.1854 20.8436 18.9646C20.6481 18.7476 20.4205 18.562 20.1686 18.4141C15.9731 15.9106 9.44353 17.8171 5.5 20.6146M20.0141 22.5257C19.9599 22.5375 19.9046 22.5435 19.8491 22.5437M19.8491 22.5437C18.9445 22.6346 18.0331 22.6366 17.1281 22.5497" stroke="#EB5757" stroke-linecap="round"/>
<path d="M5.50003 19.5C5.50003 18.2574 4.49267 17.25 3.25002 17.25C2.00737 17.25 1 18.2574 1 19.5V27.0001C1 28.2427 2.00737 29.2501 3.25002 29.2501C4.49267 29.2501 5.50003 28.2427 5.50003 27.0001V19.5Z" stroke="#EB5757"/>
</svg>
