<svg width="32" height="30" viewBox="0 0 32 30" fill="none" xmlns="http://www.w3.org/2000/svg">
<path d="M7.87888 11.8711C6.99987 10.9921 6.99987 9.57906 6.99987 6.75004C6.99987 3.92102 6.99987 2.50801 7.87888 1.62901M7.87888 11.8711C8.75788 12.7501 10.1709 12.7501 12.9999 12.7501H19C21.829 12.7501 23.242 12.7501 24.121 11.8711M7.87888 1.62901C8.75788 0.75 10.1709 0.75 12.9999 0.75H19C21.829 0.75 23.242 0.75 24.121 1.62901M24.121 1.62901C25 2.50801 25 3.92102 25 6.75004C25 9.57906 25 10.9921 24.121 11.8711M14.4999 6.75004C14.4999 7.14787 14.658 7.5294 14.9393 7.81071C15.2206 8.09202 15.6021 8.25005 15.9999 8.25005C16.3978 8.25005 16.7793 8.09202 17.0606 7.81071C17.3419 7.5294 17.4999 7.14787 17.4999 6.75004C17.4999 6.35222 17.3419 5.97068 17.0606 5.68938C16.7793 5.40807 16.3978 5.25003 15.9999 5.25003C15.6021 5.25003 15.2206 5.40807 14.9393 5.68938C14.658 5.97068 14.4999 6.35222 14.4999 6.75004Z" stroke="#1B7B44"/>
<path d="M6.99986 5.25003C8.19334 5.25003 9.33794 4.77592 10.1819 3.932C11.0258 3.08808 11.4999 1.94348 11.4999 0.75M6.99986 8.25005C8.19334 8.25005 9.33794 8.72416 10.1819 9.56808C11.0258 10.412 11.4999 11.5566 11.4999 12.7501M25 5.25003C23.8065 5.25003 22.6619 4.77592 21.818 3.932C20.9741 3.08808 20.5 1.94348 20.5 0.75M25 8.25005C23.8065 8.25005 22.6619 8.72416 21.818 9.56808C20.9741 10.412 20.5 11.5566 20.5 12.7501M26.5 26.8322H23.11C21.595 26.8322 20.0605 26.9912 18.5859 27.2942C15.9534 27.835 13.2448 27.895 10.5909 27.4712C9.28888 27.2612 8.01087 26.9387 6.85286 26.3807C5.80885 25.8752 4.52934 25.1657 3.66984 24.3692C2.81183 23.5742 1.91782 22.2737 1.28482 21.2566C0.738815 20.3836 1.00282 19.3141 1.86382 18.6646C2.34765 18.3127 2.93055 18.1231 3.52884 18.1231C4.12712 18.1231 4.71002 18.3127 5.19385 18.6646L7.90437 20.7121C8.95437 21.5072 10.1019 22.2377 11.4684 22.4552C11.6334 22.4807 11.8059 22.5047 11.9859 22.5257M11.9859 22.5257C12.0409 22.532 12.0959 22.538 12.1509 22.5437M11.9859 22.5257C11.7458 22.4607 11.5257 22.337 11.3454 22.1657C11.1194 21.9701 10.9348 21.7313 10.8026 21.4632C10.6703 21.1952 10.5931 20.9034 10.5755 20.605C10.5579 20.3067 10.6002 20.0078 10.7 19.7261C10.7997 19.4443 10.9549 19.1854 11.1564 18.9646C11.3519 18.7476 11.5795 18.562 11.8314 18.4141C16.0269 15.9106 22.5565 17.8171 26.5 20.6146M11.9859 22.5257C12.0401 22.5375 12.0954 22.5435 12.1509 22.5437M12.1509 22.5437C13.0555 22.6346 13.9669 22.6366 14.8719 22.5497" stroke="#1B7B44" stroke-linecap="round"/>
<path d="M26.5 19.5C26.5 18.2574 27.5073 17.25 28.75 17.25C29.9926 17.25 31 18.2574 31 19.5V27.0001C31 28.2427 29.9926 29.2501 28.75 29.2501C27.5073 29.2501 26.5 28.2427 26.5 27.0001V19.5Z" stroke="#1B7B44"/>
</svg>
