<svg width="61" height="61" viewBox="0 0 61 61" fill="none" xmlns="http://www.w3.org/2000/svg">
<circle cx="30.5" cy="30.5" r="30.5" fill="url(#paint0_linear_6381_82746)"/>
<path d="M22.5355 25.0909L25.3746 33.6776H25.4865L28.3203 25.0909H30.4936L26.6477 36H24.2081L20.3675 25.0909H22.5355ZM37.8591 28.0898C37.8094 27.6246 37.5999 27.2624 37.2306 27.0032C36.8648 26.744 36.3889 26.6143 35.803 26.6143C35.3911 26.6143 35.0377 26.6765 34.743 26.8008C34.4482 26.9251 34.2227 27.0937 34.0665 27.3068C33.9102 27.5199 33.8303 27.7631 33.8268 28.0366C33.8268 28.2638 33.8783 28.4609 33.9813 28.6278C34.0878 28.7947 34.2316 28.9368 34.4127 29.054C34.5938 29.1676 34.7945 29.2635 35.0146 29.3416C35.2348 29.4197 35.4568 29.4854 35.6805 29.5387L36.7032 29.7944C37.1151 29.8903 37.5111 30.0199 37.8911 30.1832C38.2746 30.3466 38.6173 30.5526 38.9191 30.8011C39.2245 31.0497 39.466 31.3498 39.6436 31.7013C39.8211 32.0529 39.9099 32.4648 39.9099 32.9371C39.9099 33.5763 39.7465 34.1392 39.4198 34.6257C39.0931 35.1087 38.6208 35.4869 38.0029 35.7603C37.3886 36.0302 36.6446 36.1651 35.771 36.1651C34.9223 36.1651 34.1855 36.0337 33.5605 35.771C32.939 35.5082 32.4525 35.1246 32.1009 34.6204C31.7529 34.1161 31.5647 33.5018 31.5363 32.7773H33.4806C33.509 33.1573 33.6262 33.4734 33.8321 33.7255C34.0381 33.9776 34.3062 34.1658 34.6365 34.2901C34.9703 34.4144 35.3431 34.4766 35.7551 34.4766C36.1847 34.4766 36.5612 34.4126 36.8843 34.2848C37.211 34.1534 37.4667 33.9723 37.6514 33.7415C37.836 33.5071 37.9301 33.2337 37.9337 32.9212C37.9301 32.6371 37.8467 32.4027 37.6833 32.218C37.52 32.0298 37.2909 31.8736 36.9962 31.7493C36.705 31.6214 36.3641 31.5078 35.9735 31.4084L34.7323 31.0888C33.8339 30.858 33.1237 30.5082 32.6017 30.0394C32.0832 29.5671 31.824 28.9403 31.824 28.1591C31.824 27.5163 31.998 26.9535 32.346 26.4705C32.6975 25.9876 33.1752 25.6129 33.7789 25.3466C34.3825 25.0767 35.0661 24.9418 35.8296 24.9418C36.6038 24.9418 37.282 25.0767 37.8644 25.3466C38.4504 25.6129 38.9102 25.984 39.2441 26.4599C39.5779 26.9322 39.7501 27.4755 39.7607 28.0898H37.8591Z" fill="white"/>
<defs>
<linearGradient id="paint0_linear_6381_82746" x1="1.51126" y1="34.0883" x2="64.2063" y2="34.5016" gradientUnits="userSpaceOnUse">
<stop stop-color="#CE6800"/>
<stop offset="1" stop-color="#9747FF"/>
</linearGradient>
</defs>
</svg>
