<svg width="24" height="25" viewBox="0 0 24 25" fill="none" xmlns="http://www.w3.org/2000/svg">
<path d="M10.33 17.093H4.0293" stroke="white" stroke-width="1.5" stroke-linecap="round" stroke-linejoin="round"/>
<path d="M13.1406 7.39969H19.4413" stroke="white" stroke-width="1.5" stroke-linecap="round" stroke-linejoin="round"/>
<path fill-rule="evenodd" clip-rule="evenodd" d="M8.72629 7.34625C8.72629 6.0506 7.66813 5 6.36314 5C5.05816 5 4 6.0506 4 7.34625C4 8.64191 5.05816 9.69251 6.36314 9.69251C7.66813 9.69251 8.72629 8.64191 8.72629 7.34625Z" stroke="white" stroke-width="1.5" stroke-linecap="round" stroke-linejoin="round"/>
<path fill-rule="evenodd" clip-rule="evenodd" d="M19.9997 17.0533C19.9997 15.7576 18.9424 14.707 17.6374 14.707C16.3316 14.707 15.2734 15.7576 15.2734 17.0533C15.2734 18.3489 16.3316 19.3995 17.6374 19.3995C18.9424 19.3995 19.9997 18.3489 19.9997 17.0533Z" stroke="white" stroke-width="1.5" stroke-linecap="round" stroke-linejoin="round"/>
</svg>
