<svg width="60" height="60" viewBox="0 0 60 60" fill="none" xmlns="http://www.w3.org/2000/svg">
<path d="M50 52.5H42.5V47.5H50V52.5ZM50 42.5H42.5V37.5H50V42.5ZM50 32.5H42.5V27.5H50V32.5ZM60 19.5C59 11.25 52 5 43.75 5C39.5 5 35.25 6.75 32.25 9.75C30.5 11.5 29.25 13.25 28.5 15.5L39 22.5H55V55H60V19.5ZM33.25 17.5C34.75 13 39 10 43.75 10C48.5 10 52.75 13 54.25 17.5H33.25ZM18.75 15L0 27.5V55H37.5V27.5L18.75 15ZM32.5 50H25V35H12.5V50H5V30L18.75 21.25L32.5 30V50Z" fill="url(#paint0_linear_7233_13001)"/>
<defs>
<linearGradient id="paint0_linear_7233_13001" x1="1.48649" y1="32.9412" x2="63.1526" y2="33.4291" gradientUnits="userSpaceOnUse">
<stop stop-color="#CE6800"/>
<stop offset="1" stop-color="#9747FF"/>
</linearGradient>
</defs>
</svg>
