<svg width="58" height="58" viewBox="0 0 58 58" fill="none" xmlns="http://www.w3.org/2000/svg">
<path d="M48.3335 42.291V48.3327H9.66683V42.291H4.8335V48.3327C4.8335 50.991 7.0085 53.166 9.66683 53.166H48.3335C50.9918 53.166 53.1668 50.991 53.1668 48.3327V42.291H48.3335Z" fill="url(#paint0_linear_7233_13023)"/>
<path d="M29.0003 28.275L20.542 18.125H37.4587L29.0003 28.275Z" fill="url(#paint1_linear_7233_13023)"/>
<path d="M26.5835 4.83398H31.4168V21.7507H26.5835V4.83398ZM38.0627 32.5048L37.2168 33.834L41.446 36.1298L42.171 34.6798C44.1043 31.0548 45.3127 29.0007 46.4002 28.3965C47.4877 27.7923 49.5418 27.7923 53.1668 27.7923V22.959C43.8627 22.959 43.0168 23.4423 38.0627 32.5048Z" fill="url(#paint2_linear_7233_13023)"/>
<path d="M46.4002 37.459L35.5252 42.2923L33.8335 30.209L46.4002 37.459ZM19.9377 32.5048L20.6627 33.9548L16.4335 36.2507L15.7085 34.8007C13.7752 31.1757 12.5668 29.1215 11.4793 28.5173C10.5127 27.7923 8.4585 27.7923 4.8335 27.7923V22.959C14.1377 22.959 14.9835 23.4423 19.9377 32.5048Z" fill="url(#paint3_linear_7233_13023)"/>
<path d="M24.1668 30.209L22.4751 42.2923L11.6001 37.459L24.1668 30.209Z" fill="url(#paint4_linear_7233_13023)"/>
<defs>
<linearGradient id="paint0_linear_7233_13023" x1="6.03094" y1="48.3682" x2="55.6669" y2="49.8226" gradientUnits="userSpaceOnUse">
<stop stop-color="#CE6800"/>
<stop offset="1" stop-color="#9747FF"/>
</linearGradient>
<linearGradient id="paint1_linear_7233_13023" x1="20.9611" y1="23.7971" x2="38.3465" y2="23.9881" gradientUnits="userSpaceOnUse">
<stop stop-color="#CE6800"/>
<stop offset="1" stop-color="#9747FF"/>
</linearGradient>
<linearGradient id="paint2_linear_7233_13023" x1="27.2421" y1="22.3229" x2="54.5644" y2="22.4759" gradientUnits="userSpaceOnUse">
<stop stop-color="#CE6800"/>
<stop offset="1" stop-color="#9747FF"/>
</linearGradient>
<linearGradient id="paint3_linear_7233_13023" x1="5.8633" y1="33.7629" x2="48.5783" y2="34.3684" gradientUnits="userSpaceOnUse">
<stop stop-color="#CE6800"/>
<stop offset="1" stop-color="#9747FF"/>
</linearGradient>
<linearGradient id="paint4_linear_7233_13023" x1="11.9114" y1="36.9614" x2="24.8273" y2="37.05" gradientUnits="userSpaceOnUse">
<stop stop-color="#CE6800"/>
<stop offset="1" stop-color="#9747FF"/>
</linearGradient>
</defs>
</svg>
