<svg width="60" height="60" viewBox="0 0 60 60" fill="none" xmlns="http://www.w3.org/2000/svg">
<path d="M44.2532 49.4712C45.6869 49.4712 46.8491 48.3089 46.8491 46.8752C46.8491 45.4415 45.6869 44.2793 44.2532 44.2793C42.8195 44.2793 41.6572 45.4415 41.6572 46.8752C41.6572 48.3089 42.8195 49.4712 44.2532 49.4712Z" fill="url(#paint0_linear_7233_13011)"/>
<path d="M58.125 41.1572L57.8616 40.5431C56.3794 37.0941 53.835 34.455 50.7084 32.9334L48.7875 18.2016H49.0191C49.7109 18.2016 50.5369 17.9212 50.5369 16.5862V14.7403C50.5369 13.4053 49.7109 13.125 49.0191 13.125H26.6878C25.995 13.125 25.1691 13.4053 25.1691 14.7403V16.5862C25.1691 17.9212 25.995 18.2016 26.6878 18.2016H26.7469L25.4691 27.9994L5.99719 30.9488L5.82938 31.1466C5.15812 31.9397 4.08375 34.3884 3.60469 35.5228V27.1153H1.875V40.0959H3.60469V39.3009C3.75094 39.3009 3.89344 39.3169 4.03312 39.3394L4.01625 41.865C4.00031 41.8772 3.98344 41.8847 3.9675 41.8959H1.875V44.6063H4.39969C3.60429 45.3337 2.96905 46.2187 2.53439 47.2051C2.09973 48.1914 1.87517 49.2574 1.875 50.3353C1.875 54.6394 5.36063 58.125 9.65906 58.125C13.8403 58.125 17.2444 54.8231 17.4253 50.6803H19.6819C19.6912 50.5059 19.6903 50.3353 19.6912 50.1637H33.5006C34.9069 54.7716 39.1884 58.125 44.2528 58.125C50.4609 58.125 55.4953 53.0878 55.4953 46.875C55.4953 45.4238 55.2113 44.0428 54.7116 42.7678L58.125 41.1572ZM4.04344 37.6022C3.89813 37.5872 3.75375 37.5694 3.60469 37.5694V37.0284H4.04719L4.04344 37.6022ZM26.6878 16.8169C26.6477 16.8173 26.6076 16.8152 26.5678 16.8103C26.5555 16.7363 26.5502 16.6613 26.5519 16.5862V14.7403C26.5519 14.6297 26.5594 14.5584 26.5678 14.5163C26.6076 14.5114 26.6477 14.5092 26.6878 14.5097H49.0191C49.0588 14.5092 49.0986 14.5114 49.1381 14.5163C49.1456 14.5584 49.1541 14.6297 49.1541 14.7403V16.5862C49.1541 16.6969 49.1456 16.7681 49.1381 16.8103C49.0986 16.8152 49.0588 16.8173 49.0191 16.8169H26.6878ZM40.3397 30.1153C37.965 33.5109 33.4959 30.4847 33.4959 34.7597H26.955L28.6847 18.3178H29.7844V20.0044C29.5631 20.1481 29.3813 20.3448 29.2554 20.5766C29.1295 20.8084 29.0635 21.0681 29.0634 21.3319V27.1734C29.0634 27.5936 29.2304 27.9966 29.5275 28.2938C29.8246 28.5909 30.2276 28.7578 30.6478 28.7578C31.068 28.7578 31.471 28.5909 31.7681 28.2938C32.0653 27.9966 32.2322 27.5936 32.2322 27.1734V21.3319C32.2324 21.1237 32.1917 20.9176 32.1122 20.7252C32.0328 20.5328 31.9162 20.358 31.7691 20.2107C31.6221 20.0634 31.4474 19.9465 31.2552 19.8667C31.063 19.7869 30.8569 19.7457 30.6488 19.7456V18.3178H46.8459L48.2869 32.0203C46.9897 31.6564 45.6488 31.4716 44.3016 31.4709L44.2509 31.4728V23.3616C39.4678 23.3606 42.1359 27.5372 40.3397 30.1153ZM6.74062 32.2359L25.3978 29.4103V35.6428H5.05781C5.59781 34.3931 6.3 32.8912 6.74062 32.2359ZM5.41219 40.0528C5.62788 40.263 5.80579 40.5088 5.93813 40.7794C5.75813 40.8563 5.58281 40.9547 5.40562 41.0428L5.41219 40.0528ZM9.65906 54.6628C9.09106 54.6627 8.52864 54.5507 8.00393 54.3332C7.47922 54.1157 7.0025 53.7969 6.60099 53.3951C6.19948 52.9934 5.88105 52.5164 5.66388 51.9916C5.44671 51.4667 5.33507 50.9043 5.33531 50.3363C5.32687 49.763 5.43248 49.1938 5.64601 48.6618C5.85953 48.1298 6.17671 47.6455 6.57909 47.2372C6.98146 46.8288 7.46101 46.5045 7.98985 46.2832C8.51868 46.0619 9.08625 45.9479 9.65953 45.9479C10.2328 45.9479 10.8004 46.0619 11.3292 46.2832C11.858 46.5045 12.3376 46.8288 12.74 47.2372C13.1424 47.6455 13.4595 48.1298 13.6731 48.6618C13.8866 49.1938 13.9922 49.763 13.9838 50.3363C13.9835 51.4833 13.5278 52.5834 12.7169 53.3947C11.906 54.2059 10.8061 54.6621 9.65906 54.6628ZM33.1828 48.7781H19.6106C19.1991 45.4341 17.2312 42.6225 14.1713 41.1122C12.0441 40.0631 9.76219 39.7697 7.60031 40.2469C7.18471 39.2447 6.40871 38.4346 5.42531 37.9762L5.42625 37.785H24.1434L28.1859 43.6697H33.4791C33.1688 44.7096 33.0109 45.7889 33.0103 46.8741C33.0103 47.5247 33.0769 48.1584 33.1828 48.7781ZM44.2528 52.9322C42.6472 52.9317 41.1075 52.2935 39.9723 51.158C38.8371 50.0224 38.1994 48.4825 38.1994 46.8769C38.1989 46.0815 38.3551 45.2938 38.659 44.5587C38.963 43.8237 39.4088 43.1558 39.9709 42.593C40.533 42.0303 41.2005 41.5838 41.9352 41.279C42.6699 40.9743 43.4574 40.8172 44.2528 40.8169C45.8463 40.8367 47.3679 41.4836 48.4878 42.6175C49.6076 43.7514 50.2356 45.2809 50.2356 46.8745C50.2356 48.4682 49.6076 49.9977 48.4878 51.1315C47.3679 52.2654 45.8463 52.9124 44.2528 52.9322ZM44.3034 35.1347C40.1053 35.1347 36.2766 37.5919 34.1588 41.5969L32.1684 40.5131C34.3913 35.7056 38.8838 32.8566 44.3034 32.8566C49.5619 32.8566 54.0056 35.6934 56.3138 40.4831L54.3516 41.4094C52.2122 37.5197 48.4191 35.1347 44.3034 35.1347Z" fill="url(#paint1_linear_7233_13011)"/>
<path d="M9.65934 52.0667C10.6151 52.0667 11.39 51.2919 11.39 50.3361C11.39 49.3803 10.6151 48.6055 9.65934 48.6055C8.70354 48.6055 7.92871 49.3803 7.92871 50.3361C7.92871 51.2919 8.70354 52.0667 9.65934 52.0667Z" fill="url(#paint2_linear_7233_13011)"/>
<defs>
<linearGradient id="paint0_linear_7233_13011" x1="41.7859" y1="47.1806" x2="47.122" y2="47.2158" gradientUnits="userSpaceOnUse">
<stop stop-color="#CE6800"/>
<stop offset="1" stop-color="#9747FF"/>
</linearGradient>
<linearGradient id="paint1_linear_7233_13011" x1="3.26858" y1="38.2721" x2="61.0802" y2="38.7485" gradientUnits="userSpaceOnUse">
<stop stop-color="#CE6800"/>
<stop offset="1" stop-color="#9747FF"/>
</linearGradient>
<linearGradient id="paint2_linear_7233_13011" x1="8.01446" y1="50.5397" x2="11.5719" y2="50.5632" gradientUnits="userSpaceOnUse">
<stop stop-color="#CE6800"/>
<stop offset="1" stop-color="#9747FF"/>
</linearGradient>
</defs>
</svg>
