<svg width="641" height="21" viewBox="0 0 641 21" fill="none" xmlns="http://www.w3.org/2000/svg">
<mask id="mask0_1780_22388" style="mask-type:luminance" maskUnits="userSpaceOnUse" x="0" y="0" width="82" height="21">
<path d="M81.1765 0.800293H0V20.8003H81.1765V0.800293Z" fill="white"/>
</mask>
<g mask="url(#mask0_1780_22388)">
<path d="M30.2706 5.35498H25.7924C25.4859 5.35498 25.2253 5.57792 25.1771 5.88028L23.3659 17.3638C23.3575 17.4172 23.3607 17.4717 23.3754 17.5236C23.3901 17.5756 23.4159 17.6237 23.4511 17.6647C23.4862 17.7057 23.5298 17.7386 23.5789 17.7611C23.6279 17.7836 23.6813 17.7952 23.7353 17.795H25.8736C26.1794 17.795 26.4406 17.5721 26.4883 17.2691L26.9765 14.1715C27.0236 13.8685 27.2853 13.6456 27.5912 13.6456H29.0088C31.9588 13.6456 33.6612 12.2185 34.1059 9.38969C34.3059 8.15204 34.1141 7.17969 33.5353 6.49851C32.8983 5.75086 31.7694 5.35498 30.2706 5.35498ZM30.7871 9.5491C30.5424 11.1562 29.3147 11.1562 28.1271 11.1562H27.4512L27.9253 8.15498C27.9392 8.06718 27.984 7.98722 28.0516 7.92952C28.1192 7.87182 28.2052 7.84017 28.2941 7.84028H28.6041C29.413 7.84028 30.1753 7.84028 30.57 8.30086C30.8053 8.57616 30.8765 8.98498 30.7871 9.5491ZM43.6571 9.49734H41.5118C41.4228 9.49737 41.3368 9.52914 41.2692 9.58694C41.2016 9.64474 41.1568 9.72477 41.143 9.81263L41.0488 10.4126L40.8983 10.195C40.4336 9.52086 39.3983 9.29557 38.3653 9.29557C35.9959 9.29557 33.9712 11.0909 33.5771 13.6085C33.3724 14.8644 33.6641 16.0656 34.3765 16.9026C35.0294 17.6732 35.9647 17.9938 37.0777 17.9938C38.9871 17.9938 40.0459 16.7662 40.0459 16.7662L39.95 17.3621C39.9414 17.4154 39.9445 17.4699 39.959 17.5219C39.9736 17.5739 39.9993 17.6222 40.0343 17.6633C40.0693 17.7044 40.1128 17.7374 40.1619 17.7601C40.2109 17.7827 40.2643 17.7944 40.3183 17.7944H42.25C42.5571 17.7944 42.8165 17.5715 42.8647 17.2685L44.0236 9.92851C44.0322 9.87535 44.0291 9.82096 44.0146 9.76909C44.0001 9.71722 43.9746 9.66912 43.9396 9.62811C43.9047 9.58711 43.8613 9.55418 43.8125 9.53159C43.7636 9.50901 43.711 9.49732 43.6571 9.49734ZM40.6677 13.6715C40.4606 14.8968 39.4883 15.7185 38.2483 15.7185C37.6253 15.7185 37.1277 15.5191 36.8083 15.1409C36.4912 14.7644 36.3706 14.2297 36.4718 13.6338C36.6647 12.4191 37.6541 11.5703 38.8747 11.5703C39.4841 11.5703 39.9788 11.7726 40.3047 12.1544C40.6318 12.5397 40.7612 13.0779 40.6677 13.6715ZM55.0783 9.49734H52.9236C52.7177 9.49734 52.5247 9.59969 52.4083 9.77028L49.4359 14.1485L48.1759 9.94145C48.1373 9.81313 48.0583 9.70067 47.9508 9.62068C47.8433 9.5407 47.7129 9.49745 47.5788 9.49734H45.4612C45.4017 9.49724 45.3431 9.51134 45.2902 9.53846C45.2373 9.56559 45.1916 9.60495 45.157 9.65328C45.1224 9.7016 45.0998 9.7575 45.0911 9.81632C45.0824 9.87514 45.0879 9.93518 45.1071 9.99145L47.4806 16.9574L45.2488 20.1074C45.209 20.1632 45.1854 20.2289 45.1805 20.2973C45.1757 20.3657 45.1898 20.4342 45.2212 20.4951C45.2527 20.556 45.3004 20.6071 45.359 20.6426C45.4177 20.6782 45.485 20.697 45.5536 20.6968H47.7059C47.91 20.6968 48.1012 20.5974 48.2177 20.4297L55.3847 10.0838C55.4238 10.0279 55.4467 9.96235 55.4511 9.89429C55.4555 9.82623 55.4412 9.75828 55.4096 9.69781C55.3781 9.63735 55.3306 9.58668 55.2723 9.55134C55.2139 9.51599 55.1465 9.49731 55.0783 9.49734Z" fill="#253B80"/>
<path d="M62.2141 5.35484H57.7347C57.4288 5.35484 57.1688 5.57778 57.1205 5.88013L55.3094 17.3637C55.3008 17.4169 55.304 17.4714 55.3186 17.5233C55.3332 17.5752 55.3589 17.6233 55.3939 17.6643C55.4289 17.7053 55.4724 17.7383 55.5214 17.7608C55.5704 17.7833 55.6237 17.795 55.6776 17.7949H57.9758C58.0795 17.7947 58.1798 17.7575 58.2585 17.69C58.3372 17.6225 58.3893 17.5291 58.4052 17.4266L58.9194 14.1714C58.9664 13.8684 59.2282 13.6455 59.5335 13.6455H60.9511C63.9011 13.6455 65.6035 12.2184 66.0488 9.38955C66.2494 8.1519 66.0564 7.17955 65.477 6.49837C64.8411 5.75072 63.7123 5.35484 62.2141 5.35484ZM62.7305 9.54896C62.4864 11.1561 61.2588 11.1561 60.0705 11.1561H59.3958L59.8705 8.15484C59.8842 8.06713 59.9287 7.98719 59.9961 7.92948C60.0636 7.87176 60.1494 7.84007 60.2382 7.84013H60.5482C61.3558 7.84013 62.1194 7.84013 62.5141 8.30072C62.7494 8.57602 62.82 8.98484 62.7305 9.54896ZM75.6 9.49719H73.4564C73.3675 9.49703 73.2816 9.52876 73.2141 9.58661C73.1466 9.64447 73.1022 9.72462 73.0888 9.81249L72.9935 10.4125L72.8429 10.1949C72.3788 9.52072 71.3441 9.29543 70.3105 9.29543C67.9411 9.29543 65.9176 11.0908 65.5235 13.6084C65.3194 14.8643 65.6094 16.0655 66.3217 16.9025C66.9764 17.6731 67.91 17.9937 69.0229 17.9937C70.9323 17.9937 71.9911 16.7661 71.9911 16.7661L71.8952 17.3619C71.8867 17.4153 71.8899 17.4699 71.9046 17.522C71.9192 17.574 71.945 17.6223 71.9801 17.6634C72.0153 17.7045 72.0589 17.7375 72.108 17.7601C72.1571 17.7827 72.2106 17.7944 72.2647 17.7943H74.1958C74.5017 17.7943 74.7623 17.5714 74.81 17.2684L75.97 9.92837C75.9782 9.87498 75.9748 9.82043 75.9599 9.76849C75.9451 9.71654 75.9192 9.66843 75.8839 9.62746C75.8487 9.58648 75.805 9.55362 75.7559 9.53114C75.7068 9.50865 75.654 9.49707 75.6 9.49719ZM72.6105 13.6714C72.4047 14.8966 71.4311 15.7184 70.1911 15.7184C69.5694 15.7184 69.0705 15.519 68.7511 15.1408C68.4341 14.7643 68.3147 14.2296 68.4147 13.6337C68.6088 12.419 69.5964 11.5702 70.8176 11.5702C71.4264 11.5702 71.9217 11.7725 72.2476 12.1543C72.5758 12.5396 72.7052 13.0778 72.6105 13.6714ZM78.1282 5.67013L76.29 17.3643C76.2815 17.4175 76.2847 17.4719 76.2994 17.5237C76.314 17.5756 76.3397 17.6236 76.3747 17.6645C76.4097 17.7055 76.4532 17.7383 76.5022 17.7608C76.5511 17.7833 76.6043 17.7949 76.6582 17.7949H78.5058C78.8129 17.7949 79.0735 17.5719 79.1205 17.269L80.9335 5.78602C80.942 5.73274 80.9388 5.67826 80.9243 5.62632C80.9097 5.57439 80.884 5.52623 80.849 5.48519C80.814 5.44414 80.7705 5.41118 80.7215 5.38857C80.6725 5.36597 80.6192 5.35426 80.5653 5.35425H78.4958C78.407 5.35471 78.3213 5.38673 78.2539 5.4446C78.1866 5.50247 78.142 5.58242 78.1282 5.67013Z" fill="#179BD7"/>
<path d="M4.76802 20.0262L5.11037 17.8509L4.34802 17.8333H0.705078L3.23625 1.7815C3.24375 1.73241 3.26869 1.68766 3.30651 1.65546C3.34432 1.62327 3.39248 1.60578 3.44214 1.60621H9.58449C11.6233 1.60621 13.031 2.03033 13.7657 2.86797C14.1098 3.26091 14.3292 3.6715 14.4351 4.12327C14.5468 4.59739 14.5486 5.16444 14.4398 5.85503L14.4321 5.90503V6.34797L14.7763 6.54327C15.0668 6.6968 15.2968 6.87268 15.4739 7.07444C15.768 7.41092 15.9592 7.83739 16.0398 8.34386C16.1227 8.86444 16.0951 9.48386 15.9592 10.185C15.8021 10.9921 15.5474 11.6944 15.2045 12.2691C14.9019 12.7843 14.495 13.2305 14.0098 13.5792C13.5539 13.9027 13.0121 14.148 12.4004 14.305C11.8068 14.4597 11.1304 14.538 10.3886 14.538H9.91037C9.5692 14.538 9.23684 14.6609 8.97625 14.8815C8.71587 15.1044 8.54306 15.4125 8.48861 15.7509L8.45331 15.9468L7.84743 19.7809L7.82037 19.9221C7.81331 19.9662 7.80037 19.9886 7.78214 20.0033C7.76445 20.0181 7.74224 20.0264 7.7192 20.0268L4.76802 20.0262Z" fill="#253B80"/>
<path d="M15.1028 5.9563C15.0846 6.07395 15.0634 6.19336 15.0399 6.3163C14.2299 10.4751 11.4587 11.9122 7.91929 11.9122H6.11694C5.68459 11.9122 5.31988 12.2263 5.25224 12.6534L4.32929 18.5045L4.06812 20.1634C4.05775 20.2292 4.06176 20.2964 4.07988 20.3605C4.09799 20.4246 4.12977 20.484 4.17303 20.5347C4.2163 20.5853 4.27002 20.626 4.33051 20.6539C4.39099 20.6818 4.4568 20.6963 4.52341 20.6963H7.71929C8.09812 20.6963 8.41929 20.4216 8.47929 20.0481L8.51047 19.8857L9.11224 16.0669L9.15106 15.8575C9.20988 15.4828 9.53224 15.2075 9.91047 15.2075H10.3887C13.4852 15.2075 15.9093 13.9504 16.6181 10.3122C16.914 8.79218 16.7605 7.52336 15.9775 6.631C15.7294 6.35483 15.433 6.1262 15.1028 5.9563Z" fill="#179BD7"/>
<path d="M14.2543 5.61797C13.9957 5.5432 13.7326 5.48485 13.4667 5.44326C12.9412 5.36251 12.4101 5.32376 11.8784 5.32738H7.06372C6.88056 5.3273 6.70341 5.39271 6.56425 5.51181C6.42509 5.6309 6.33311 5.79582 6.30489 5.97679L5.28136 12.4645L5.25195 12.6539C5.28396 12.4475 5.3887 12.2593 5.54728 12.1234C5.70585 11.9875 5.9078 11.9128 6.11666 11.9127H7.91901C11.4584 11.9127 14.2296 10.475 15.0396 6.31679C15.0637 6.19385 15.0843 6.07385 15.1025 5.95679C14.8888 5.84482 14.6661 5.75096 14.4367 5.67621C14.3778 5.65621 14.3167 5.63738 14.2549 5.61915L14.2543 5.61797Z" fill="#222D65"/>
<path d="M6.30564 5.97673C6.33365 5.79576 6.42562 5.63084 6.56485 5.5119C6.70409 5.39296 6.88135 5.32788 7.06447 5.32849H11.8786C12.4492 5.32849 12.9815 5.36555 13.4674 5.44437C13.7963 5.49604 14.1206 5.57334 14.4374 5.67555C14.6667 5.75059 14.8894 5.84444 15.1033 5.95614C15.3445 4.41908 15.1015 3.3732 14.2704 2.42555C13.3545 1.38202 11.7009 0.935547 9.58506 0.935547H3.4427C3.01035 0.935547 2.64211 1.25025 2.57506 1.67731L0.0162319 17.8944C0.00433022 17.9697 0.00889598 18.0467 0.0296148 18.1201C0.0503336 18.1935 0.086713 18.2615 0.136248 18.3195C0.185782 18.3775 0.247295 18.424 0.316549 18.4559C0.385803 18.4879 0.461152 18.5044 0.537408 18.5044H4.32917L5.28211 12.4638L6.30564 5.97673Z" fill="#253B80"/>
</g>
<mask id="mask1_1780_22388" style="mask-type:luminance" maskUnits="userSpaceOnUse" x="97" y="0" width="60" height="21">
<path d="M156.509 0.800293H97.1758V20.8003H156.509V0.800293Z" fill="white"/>
</mask>
<g mask="url(#mask1_1780_22388)">
<path d="M123.177 20.0076H118.432L121.4 1.65689H126.145L123.177 20.0076ZM140.378 2.10556C139.442 1.73356 137.958 1.32422 136.122 1.32422C131.436 1.32422 128.136 3.82289 128.116 7.39489C128.077 10.0309 130.478 11.4949 132.274 12.3736C134.11 13.2716 134.734 13.8576 134.734 14.6583C134.716 15.8876 133.251 16.4543 131.885 16.4543C129.99 16.4543 128.975 16.1623 127.432 15.4783L126.808 15.1849L126.144 19.3049C127.257 19.8116 129.307 20.2616 131.436 20.2809C136.414 20.2809 139.656 17.8209 139.694 14.0143C139.713 11.9249 138.445 10.3243 135.712 9.01622C134.052 8.17622 133.036 7.61022 133.036 6.75156C133.055 5.97022 133.896 5.17022 135.769 5.17022C137.311 5.13156 138.444 5.50222 139.302 5.87289L139.732 6.06822L140.378 2.10556ZM146.684 13.5069C147.075 12.4523 148.579 8.37222 148.579 8.37222C148.559 8.41156 148.969 7.29889 149.203 6.61489L149.535 8.19622C149.535 8.19622 150.434 12.5896 150.628 13.5063L146.684 13.5069ZM152.542 1.65622H148.872C147.74 1.65622 146.88 1.98756 146.392 3.17889L139.343 20.0069H144.322C144.322 20.0069 145.142 17.7416 145.318 17.2536H151.41C151.546 17.8983 151.976 20.0069 151.976 20.0069H156.37L152.542 1.65622ZM102.782 4.04289C101.322 3.18956 99.6569 2.50356 97.7949 2.02689L97.8729 1.65622H105.507C106.542 1.69489 107.382 2.02622 107.655 3.19889L109.314 11.6303L109.314 11.6316L109.822 14.1696L114.469 1.65622H119.486L112.028 19.9883H107.01L102.782 4.04289Z" fill="#1A1F71"/>
</g>
<g clip-path="url(#clip0_1780_22388)">
<mask id="mask2_1780_22388" style="mask-type:luminance" maskUnits="userSpaceOnUse" x="172" y="0" width="27" height="21">
<path d="M198.363 0.800293H172.51V20.8003H198.363V0.800293Z" fill="white"/>
</mask>
<g mask="url(#mask2_1780_22388)">
<path d="M177.317 20.6075V19.2904C177.325 19.1797 177.309 19.0687 177.27 18.9646C177.231 18.8606 177.171 18.766 177.093 18.6872C177.015 18.6083 176.921 18.547 176.817 18.5072C176.714 18.4675 176.603 18.4503 176.492 18.4567C176.347 18.4472 176.202 18.4768 176.072 18.5425C175.943 18.6081 175.833 18.7074 175.755 18.8299C175.683 18.7111 175.581 18.6137 175.459 18.548C175.337 18.4823 175.2 18.4508 175.061 18.4567C174.941 18.4506 174.82 18.4761 174.712 18.5307C174.605 18.5854 174.513 18.6672 174.447 18.7682V18.5094H173.99V20.6075H174.451V19.4531C174.441 19.3813 174.448 19.3083 174.469 19.2392C174.491 19.1702 174.528 19.1067 174.577 19.0535C174.626 19.0002 174.686 18.9584 174.753 18.9311C174.82 18.9038 174.892 18.8917 174.965 18.8955C175.268 18.8955 175.421 19.0931 175.421 19.4487V20.6163H175.882V19.4528C175.873 19.3812 175.879 19.3084 175.901 19.2395C175.923 19.1706 175.96 19.1074 176.009 19.0542C176.058 19.0011 176.118 18.9593 176.185 18.9319C176.251 18.9045 176.323 18.8921 176.396 18.8955C176.707 18.8955 176.857 19.0931 176.857 19.4487V20.6163L177.317 20.6075ZM184.136 18.5094H183.385V17.8728H182.924V18.5094H182.507V18.9265H182.933V19.8919C182.933 20.3792 183.122 20.6689 183.662 20.6689C183.863 20.6696 184.061 20.6133 184.232 20.5065L184.101 20.1158C183.978 20.1889 183.839 20.2297 183.697 20.2343C183.477 20.2343 183.394 20.0938 183.394 19.8831V18.9263H184.14L184.136 18.5094ZM188.029 18.4567C187.802 18.4499 187.59 18.568 187.476 18.7641V18.5094H187.024V20.6075H187.481V19.4311C187.481 19.0843 187.63 18.8911 187.92 18.8911C188.017 18.8899 188.114 18.9077 188.205 18.9438L188.345 18.5048C188.241 18.4676 188.131 18.4484 188.021 18.448L188.029 18.4567ZM182.143 18.6763C181.885 18.5226 181.588 18.4464 181.287 18.4567C180.756 18.4567 180.41 18.7111 180.41 19.1282C180.41 19.4706 180.664 19.6814 181.134 19.747L181.353 19.7777C181.603 19.8128 181.722 19.8787 181.722 19.9972C181.722 20.1597 181.555 20.2519 181.243 20.2519C180.993 20.2591 180.747 20.1818 180.546 20.0324L180.326 20.388C180.592 20.5736 180.91 20.6691 181.235 20.6602C181.84 20.6602 182.192 20.3748 182.192 19.9753C182.192 19.576 181.915 19.4136 181.459 19.3477L181.239 19.317C181.041 19.2906 180.884 19.2511 180.884 19.1106C180.884 18.9702 181.033 18.8648 181.283 18.8648C181.514 18.8675 181.741 18.9294 181.941 19.0448L182.143 18.6763ZM194.37 18.4567C194.143 18.4499 193.931 18.568 193.817 18.7641V18.5094H193.365V20.6075H193.821V19.4311C193.821 19.0843 193.97 18.8911 194.26 18.8911C194.358 18.8899 194.455 18.9077 194.545 18.9438L194.686 18.5048C194.582 18.4676 194.472 18.4484 194.361 18.448L194.37 18.4567ZM188.488 19.5541C188.482 19.7015 188.508 19.8485 188.562 19.9855C188.617 20.1226 188.7 20.2467 188.805 20.35C188.91 20.4533 189.036 20.5334 189.174 20.5853C189.312 20.6372 189.46 20.6597 189.607 20.6514C189.881 20.6653 190.151 20.576 190.362 20.4011L190.142 20.0324C189.985 20.1527 189.792 20.2189 189.594 20.2211C189.425 20.2078 189.267 20.1313 189.152 20.0068C189.037 19.8824 188.973 19.7191 188.973 19.5496C188.973 19.38 189.037 19.2167 189.152 19.0923C189.267 18.9678 189.425 18.8913 189.594 18.878C189.792 18.8802 189.985 18.9464 190.143 19.0667L190.362 18.698C190.151 18.5231 189.881 18.4339 189.607 18.448C189.46 18.4396 189.312 18.4621 189.174 18.514C189.036 18.5659 188.91 18.6461 188.805 18.7493C188.7 18.8526 188.617 18.9768 188.562 19.1138C188.508 19.2509 188.482 19.3978 188.488 19.5453V19.5541ZM192.763 19.5541V18.5094H192.307V18.7638C192.229 18.664 192.129 18.5841 192.014 18.5307C191.9 18.4773 191.774 18.4518 191.648 18.4565C191.357 18.4565 191.078 18.5721 190.872 18.7779C190.666 18.9837 190.551 19.2629 190.551 19.5539C190.551 19.845 190.666 20.1241 190.872 20.3299C191.078 20.5358 191.357 20.6514 191.648 20.6514C191.774 20.6561 191.9 20.6306 192.014 20.5772C192.129 20.5238 192.229 20.4438 192.307 20.3441V20.5987H192.763V19.5541ZM191.064 19.5541C191.072 19.4306 191.115 19.312 191.189 19.2127C191.263 19.1135 191.364 19.0381 191.48 18.9957C191.596 18.9533 191.722 18.9458 191.843 18.9741C191.963 19.0024 192.073 19.0653 192.158 19.1551C192.243 19.2448 192.3 19.3575 192.322 19.4793C192.344 19.601 192.329 19.7265 192.281 19.8402C192.232 19.954 192.151 20.0511 192.048 20.1195C191.945 20.188 191.825 20.2248 191.701 20.2255C191.614 20.2267 191.528 20.2098 191.448 20.176C191.368 20.1422 191.296 20.0922 191.236 20.0291C191.176 19.966 191.13 19.8913 191.1 19.8095C191.071 19.7278 191.059 19.6408 191.064 19.5541ZM185.556 18.4565C185.266 18.462 184.99 18.5822 184.788 18.7907C184.586 18.9992 184.475 19.2791 184.479 19.5692C184.483 19.8593 184.602 20.136 184.81 20.3388C185.017 20.5416 185.297 20.654 185.587 20.6514C185.902 20.6676 186.213 20.5659 186.458 20.366L186.238 20.028C186.065 20.167 185.851 20.2443 185.628 20.2475C185.477 20.2605 185.327 20.2141 185.21 20.1182C185.093 20.0223 185.018 19.8844 185.001 19.7338H186.559V19.5582C186.559 18.8999 186.151 18.4611 185.562 18.4611L185.556 18.4565ZM185.556 18.8648C185.694 18.8619 185.827 18.914 185.927 19.0095C186.026 19.105 186.084 19.2361 186.087 19.3741H184.99C184.998 19.2332 185.06 19.101 185.165 19.0058C185.269 18.9106 185.406 18.86 185.547 18.8648H185.556ZM196.992 19.5585V17.6663H196.553V18.7638C196.476 18.664 196.376 18.5841 196.261 18.5307C196.147 18.4773 196.021 18.4518 195.895 18.4565C195.604 18.4565 195.325 18.5721 195.119 18.7779C194.913 18.9837 194.797 19.2628 194.797 19.5538C194.797 19.8448 194.913 20.124 195.119 20.3297C195.325 20.5355 195.604 20.6511 195.895 20.6511C196.021 20.6558 196.147 20.6304 196.261 20.5769C196.376 20.5235 196.476 20.4436 196.553 20.3438V20.5985H196.992V19.5585ZM197.754 20.3024C197.782 20.302 197.811 20.3072 197.837 20.3177C197.862 20.328 197.885 20.3429 197.905 20.3616C197.93 20.3854 197.948 20.4151 197.959 20.4479C197.969 20.4807 197.971 20.5156 197.964 20.5494C197.957 20.5831 197.942 20.6146 197.92 20.6408C197.898 20.6671 197.869 20.6873 197.837 20.6997C197.811 20.7113 197.782 20.7172 197.754 20.7172C197.712 20.7169 197.671 20.7048 197.636 20.6822C197.601 20.6597 197.574 20.6277 197.556 20.5899C197.545 20.5643 197.539 20.5366 197.539 20.5087C197.539 20.4808 197.545 20.4531 197.556 20.4275C197.567 20.4029 197.583 20.3806 197.602 20.3616C197.622 20.3429 197.645 20.328 197.67 20.3177C197.699 20.3063 197.73 20.3011 197.76 20.3024H197.754ZM197.754 20.6731C197.775 20.6733 197.796 20.6692 197.816 20.6609C197.835 20.6526 197.853 20.6404 197.868 20.625C197.895 20.5951 197.911 20.5559 197.911 20.5153C197.911 20.4746 197.895 20.4355 197.868 20.4055C197.845 20.3821 197.816 20.3662 197.784 20.3599C197.753 20.3537 197.72 20.3573 197.69 20.3704C197.67 20.3785 197.652 20.3904 197.637 20.4055C197.61 20.4355 197.595 20.4746 197.595 20.5153C197.595 20.5559 197.61 20.5951 197.637 20.625C197.652 20.6399 197.67 20.6519 197.69 20.6602C197.712 20.6697 197.736 20.6741 197.76 20.6733L197.754 20.6731ZM197.767 20.4121C197.787 20.4111 197.808 20.4173 197.824 20.4297C197.831 20.4353 197.836 20.4424 197.839 20.4504C197.843 20.4584 197.844 20.4671 197.843 20.4758C197.844 20.4904 197.839 20.5048 197.828 20.5153C197.816 20.5268 197.799 20.5337 197.782 20.5348L197.846 20.6075H197.795L197.736 20.535H197.716V20.6075H197.675V20.4143L197.767 20.4121ZM197.719 20.4494V20.5021H197.767C197.775 20.5046 197.785 20.5046 197.793 20.5021C197.795 20.499 197.796 20.4957 197.796 20.4922C197.796 20.4888 197.795 20.4854 197.793 20.4824C197.795 20.4793 197.796 20.4759 197.796 20.4725C197.796 20.469 197.795 20.4657 197.793 20.4626C197.785 20.46 197.775 20.46 197.767 20.4626L197.719 20.4494ZM195.304 19.5585C195.312 19.435 195.355 19.3163 195.429 19.2171C195.503 19.1179 195.604 19.0425 195.72 19.0001C195.836 18.9577 195.962 18.9502 196.083 18.9785C196.203 19.0068 196.313 19.0697 196.398 19.1595C196.483 19.2492 196.54 19.3619 196.562 19.4837C196.584 19.6054 196.569 19.7309 196.521 19.8446C196.472 19.9584 196.391 20.0555 196.288 20.1239C196.185 20.1924 196.065 20.2292 195.941 20.2299C195.854 20.2311 195.768 20.2142 195.688 20.1804C195.608 20.1466 195.536 20.0966 195.476 20.0335C195.416 19.9704 195.37 19.8957 195.34 19.8139C195.311 19.7321 195.299 19.6452 195.304 19.5585ZM179.891 19.5585V18.5094H179.435V18.7638C179.357 18.664 179.257 18.5841 179.143 18.5307C179.028 18.4773 178.903 18.4518 178.776 18.4565C178.485 18.4565 178.206 18.5721 178 18.7779C177.795 18.9837 177.679 19.2629 177.679 19.5539C177.679 19.845 177.795 20.1241 178 20.3299C178.206 20.5358 178.485 20.6514 178.776 20.6514C178.903 20.6561 179.028 20.6306 179.143 20.5772C179.257 20.5238 179.357 20.4438 179.435 20.3441V20.5987H179.891V19.5585ZM178.193 19.5585C178.2 19.435 178.243 19.3163 178.317 19.2171C178.391 19.1179 178.492 19.0425 178.608 19.0001C178.725 18.9577 178.851 18.9502 178.971 18.9785C179.091 19.0068 179.201 19.0697 179.286 19.1595C179.371 19.2492 179.428 19.3619 179.45 19.4837C179.472 19.6054 179.458 19.7309 179.409 19.8446C179.36 19.9584 179.28 20.0555 179.177 20.1239C179.074 20.1924 178.953 20.2292 178.829 20.2299C178.742 20.2317 178.655 20.2153 178.575 20.1817C178.494 20.1482 178.421 20.0983 178.361 20.0351C178.301 19.972 178.254 19.897 178.225 19.815C178.195 19.7329 178.182 19.6455 178.188 19.5585H178.193Z" fill="#231F20"/>
<path d="M181.992 2.52124H188.905V14.9452H181.992V2.52124Z" fill="#FF5F00"/>
<path d="M182.431 8.73449C182.43 7.53771 182.701 6.35633 183.224 5.27983C183.746 4.20332 184.507 3.25992 185.449 2.52107C182.209 -0.0245367 177.557 0.346196 174.762 3.37302C171.967 6.39985 171.967 11.0664 174.762 14.0933C177.557 17.1201 182.209 17.4908 185.449 14.9452C184.508 14.2066 183.747 13.2636 183.224 12.1875C182.701 11.1115 182.43 9.93084 182.431 8.73449Z" fill="#EB001B"/>
<path d="M198.233 8.73453C198.233 10.217 197.815 11.6694 197.029 12.9259C196.242 14.1825 195.118 15.1923 193.784 15.8401C192.451 16.4879 190.962 16.7475 189.488 16.5892C188.014 16.4309 186.615 15.8612 185.449 14.945C186.39 14.2057 187.15 13.2625 187.673 12.1864C188.196 11.1103 188.468 9.92949 188.468 8.73306C188.468 7.53664 188.196 6.35584 187.673 5.27975C187.15 4.20366 186.39 3.26039 185.449 2.52111C186.615 1.60488 188.014 1.03504 189.488 0.876728C190.962 0.718411 192.451 0.978006 193.785 1.62584C195.118 2.27367 196.242 3.28361 197.029 4.5402C197.816 5.7968 198.233 7.24936 198.233 8.73184L198.233 8.73453ZM197.478 13.6284V13.3736H197.581V13.3209H197.32V13.3736H197.432V13.6282L197.478 13.6284ZM197.985 13.6284V13.3211H197.906L197.814 13.5406L197.721 13.3211H197.651V13.6284H197.708V13.3979L197.794 13.5977H197.853L197.939 13.3979V13.6306L197.985 13.6284Z" fill="#F79E1B"/>
</g>
</g>
<mask id="mask3_1780_22388" style="mask-type:luminance" maskUnits="userSpaceOnUse" x="214" y="0" width="81" height="21">
<path d="M294.363 0.800293H214.363V20.8003H294.363V0.800293Z" fill="white"/>
</mask>
<g mask="url(#mask3_1780_22388)">
<path d="M226.257 4.60698C226.278 4.58558 226.298 4.56374 226.319 4.54147L226.422 4.41569C226.652 4.11958 226.795 3.75185 226.795 3.34787C226.795 2.88339 226.61 2.43794 226.282 2.10951C225.954 1.78107 225.508 1.59656 225.044 1.59656C224.588 1.59661 224.15 1.77535 223.824 2.09444L214.699 12.0053C214.482 12.3023 214.364 12.6608 214.363 13.029C214.363 13.4935 214.548 13.9389 214.876 14.2673C215.205 14.5958 215.65 14.7803 216.115 14.7803H224.825C225.29 14.7803 225.735 14.5958 226.064 14.2673C226.392 13.9389 226.577 13.4935 226.577 13.029C226.577 12.5645 226.392 12.119 226.064 11.7906C225.735 11.4622 225.29 11.2777 224.825 11.2777H220.307C220.307 11.2777 219.972 11.2095 220.274 10.9082L226.257 4.60698ZM222.645 1.58521H216.241V1.58957C215.784 1.60223 215.35 1.79268 215.032 2.12041C214.713 2.44813 214.535 2.88726 214.535 3.34436C214.535 3.80146 214.714 4.24045 215.033 4.56794C215.352 4.89542 215.786 5.08555 216.243 5.09787C216.255 5.09787 216.267 5.09393 216.28 5.0935H219.499L222.645 1.58521ZM232.6 1.88524C232.6 1.88524 229.108 1.91494 228.332 3.76582C228.332 3.76582 228.092 4.92972 228.182 5.7058C228.182 5.7058 229.884 4.44014 232.122 4.39254C234.928 4.33271 234.66 6.72121 234.66 6.72121C234.66 6.72121 226.78 5.82547 226.78 11.4074C226.78 11.4074 226.779 15.0493 231.078 15.0493C231.078 15.0493 233.466 14.8397 234.6 12.8993V14.7204C234.6 14.7204 238.152 15.079 238.152 12.0345V5.55644C238.152 5.55644 237.973 1.88524 232.6 1.88524ZM232.101 12.4595C230.267 12.5237 230.227 10.6047 230.227 10.6047C230.227 10.6047 229.977 9.21016 232.441 8.96821C232.441 8.96821 234.681 8.68127 234.699 9.16212C234.7 9.16212 235.002 12.3577 232.101 12.4595ZM247.083 2.0084C247.083 2.0084 243.763 2.07304 243.052 4.20824V2.01845C243.052 2.01845 239.24 1.63587 239.24 4.70568C239.24 7.77549 239.275 20.6203 239.275 20.6203C239.275 20.6203 243.048 20.9806 243.048 17.8352V13.2006C243.048 13.2006 244.295 15.1956 246.695 15.1956C249.447 15.1956 252.307 13.3172 252.307 8.10653C252.307 1.93241 247.083 2.0084 247.083 2.0084ZM245.307 12.1385C244.218 12.1385 242.889 10.7287 242.889 8.262C242.889 5.79532 244.187 4.70568 245.659 4.70568C245.659 4.70568 248.526 4.83408 248.526 8.18165C248.526 11.5292 246.548 12.1385 245.307 12.1385ZM260.752 2.0084C260.752 2.0084 257.433 2.07304 256.721 4.20824V2.01845C256.721 2.01845 252.91 1.63587 252.91 4.70568C252.91 7.77549 252.944 20.6203 252.944 20.6203C252.944 20.6203 256.718 20.9806 256.718 17.8352V13.2006C256.718 13.2006 257.964 15.1956 260.365 15.1956C263.117 15.1956 265.977 13.3172 265.977 8.10653C265.977 1.93241 260.752 2.0084 260.752 2.0084ZM258.977 12.1385C257.887 12.1385 256.559 10.7287 256.559 8.262C256.559 5.79532 257.856 4.70568 259.329 4.70568C259.329 4.70568 262.196 4.83408 262.196 8.18165C262.196 11.5292 260.217 12.1385 258.977 12.1385ZM275.68 2.86484C274.796 2.40609 273.815 2.16615 272.819 2.16519C269.307 2.16519 266.46 5.06642 266.46 8.64546C266.46 12.2245 269.307 15.1253 272.819 15.1253C273.004 15.1253 273.187 15.1157 273.369 15.1C273.834 15.0393 274.782 14.8654 275.719 14.4056C276.268 14.1161 276.771 13.7483 277.213 13.3137C277.68 12.8033 278.001 12.1769 278.143 11.5H277.604C277.604 11.5 276.607 12.5206 273.546 12.5206C270.485 12.5206 270.057 9.4591 270.057 9.4591H278.384C278.466 8.50702 278.621 4.5157 275.68 2.86484ZM274.978 7.39509H270.042C270.042 7.39509 270.168 4.54671 272.636 4.54671C275.104 4.54671 274.978 7.39509 274.978 7.39509ZM283.105 8.89439C283.105 6.42771 284.245 5.36558 285.718 5.36558C285.718 5.36558 286.383 5.40009 287.073 5.80407V2.01146C286.614 2.0333 283.764 2.24642 283.111 4.20824V2.01801C283.111 2.01801 279.298 1.63587 279.298 4.70611C279.298 7.77549 279.312 14.8353 279.312 14.8353C279.312 14.8353 283.108 15.0969 283.108 11.952C283.108 9.20797 283.105 8.93326 283.105 8.89439ZM289.748 2.22633H288.778V1.88568H291.123V2.22633H290.153V5.08433H289.749L289.748 2.22633ZM291.671 1.88568H292.154L292.773 3.60205L293.003 4.2554H293.021L293.246 3.60205L293.86 1.88568H294.339V5.08433H293.953V3.32428C293.953 3.04128 293.987 2.66045 294.007 2.37788H293.987L293.734 3.08976L293.119 4.76245H292.885L292.271 3.08976L292.017 2.37788H291.998C292.017 2.66045 292.047 3.04084 292.047 3.32385V5.08433H291.671L291.671 1.88568Z" fill="#3D80C0"/>
</g>
<defs>
<clipPath id="clip0_1780_22388">
<rect width="27" height="21" fill="white" transform="translate(172)"/>
</clipPath>
</defs>
</svg>
