<svg width="34" height="35" viewBox="0 0 34 35" fill="none" xmlns="http://www.w3.org/2000/svg">
<path d="M16.9998 2V12.3333M16.9998 2L12.6943 6.30556M16.9998 2L21.3054 6.30556M6.36235 12.334C7.07702 12.9651 7.52772 13.8882 7.52772 14.9167C7.52772 16.819 5.9856 18.3611 4.08331 18.3611C3.05489 18.3611 2.13176 17.9104 1.50064 17.1957M6.36235 12.334C6.56576 12.3333 6.78159 12.3333 7.01106 12.3333H10.111M6.36235 12.334C4.85575 12.3386 4.02983 12.378 3.38068 12.7088C2.73256 13.039 2.20564 13.5659 1.87542 14.214C1.54466 14.8633 1.5053 15.6891 1.50064 17.1957M1.50064 17.1957C1.5 17.3991 1.5 17.615 1.5 17.8444V27.4889C1.5 27.7183 1.5 27.9343 1.50064 28.1377M1.50064 28.1377C2.13176 27.4229 3.05489 26.9722 4.08331 26.9722C5.9856 26.9722 7.52772 28.5143 7.52772 30.4167C7.52772 31.445 7.07702 32.3683 6.36235 32.9993M1.50064 28.1377C1.5053 29.6443 1.54466 30.4702 1.87542 31.1193C2.20564 31.7674 2.73256 32.2944 3.38068 32.6246C4.02983 32.9554 4.85575 32.9947 6.36235 32.9993M6.36235 32.9993C6.56576 33 6.78159 33 7.01106 33H26.9886C27.218 33 27.434 33 27.6374 32.9993M27.6374 32.9993C26.9227 32.3683 26.472 31.445 26.472 30.4167C26.472 28.5143 28.014 26.9722 29.9164 26.9722C30.9451 26.9722 31.8685 27.4233 32.4997 28.1383M27.6374 32.9993C29.144 32.9947 29.9699 32.9554 30.619 32.6246C31.2671 32.2944 31.7941 31.7674 32.1242 31.1193C32.4549 30.4702 32.495 29.6444 32.4997 28.1383M32.4997 28.1383C32.5004 27.9348 32.4997 27.7186 32.4997 27.4889V17.8444C32.4997 17.615 32.4997 17.3991 32.499 17.1957M32.499 17.1957C31.868 17.9104 30.9447 18.3611 29.9164 18.3611C28.014 18.3611 26.472 16.819 26.472 14.9167C26.472 13.8882 26.9227 12.9651 27.6374 12.334M32.499 17.1957C32.4944 15.6891 32.4551 14.8633 32.1242 14.214C31.7941 13.5659 31.2671 13.039 30.619 12.7088C29.9699 12.378 29.144 12.3386 27.6374 12.334M27.6374 12.334C27.434 12.3333 27.218 12.3333 26.9886 12.3333H23.8887M20.4443 22.6667C20.4443 24.569 18.9022 26.1111 16.9998 26.1111C15.0975 26.1111 13.5554 24.569 13.5554 22.6667C13.5554 20.7643 15.0975 19.2222 16.9998 19.2222C18.9022 19.2222 20.4443 20.7643 20.4443 22.6667Z" stroke="#0F6862" stroke-width="3" stroke-linecap="round" stroke-linejoin="round"/>
</svg>
