<svg width="44" height="57" viewBox="0 0 44 57" fill="none" xmlns="http://www.w3.org/2000/svg">
<path d="M15.5467 17.7925C17.1893 17.7925 18.5093 16.4725 18.5093 14.8299C18.5093 13.1872 17.1893 11.8672 15.5467 11.8672C13.904 11.8672 12.584 13.1872 12.584 14.8299C12.584 16.4725 13.904 17.7925 15.5467 17.7925Z" fill="url(#paint0_linear_5991_38800)"/>
<path fill-rule="evenodd" clip-rule="evenodd" d="M21.5012 24.2451C21.5012 21.0771 18.8319 18.7891 15.5465 18.7891C12.2612 18.7891 9.59187 21.0771 9.59187 24.2451V25.7411C9.59187 26.0051 9.7092 26.2691 9.8852 26.4451C10.0612 26.6211 10.3252 26.7384 10.5892 26.7384H20.5039C20.7679 26.7384 21.0319 26.6211 21.2079 26.4451C21.3839 26.2691 21.5012 26.0051 21.5012 25.7411V24.2451ZM9.5332 32.8984C9.5332 32.3149 9.76499 31.7553 10.1776 31.3428C10.5901 30.9302 11.1497 30.6984 11.7332 30.6984H32.2665C32.85 30.6984 33.4096 30.9302 33.8222 31.3428C34.2347 31.7553 34.4665 32.3149 34.4665 32.8984C34.4665 33.4819 34.2347 34.0414 33.8222 34.454C33.4096 34.8666 32.85 35.0984 32.2665 35.0984H11.7332C11.1497 35.0984 10.5901 34.8666 10.1776 34.454C9.76499 34.0414 9.5332 33.4819 9.5332 32.8984ZM9.5332 41.6984C9.5332 41.1149 9.76499 40.5553 10.1776 40.1428C10.5901 39.7302 11.1497 39.4984 11.7332 39.4984H32.2665C32.85 39.4984 33.4096 39.7302 33.8222 40.1428C34.2347 40.5553 34.4665 41.1149 34.4665 41.6984C34.4665 42.2819 34.2347 42.8414 33.8222 43.254C33.4096 43.6666 32.85 43.8984 32.2665 43.8984H11.7332C11.1497 43.8984 10.5901 43.6666 10.1776 43.254C9.76499 42.8414 9.5332 42.2819 9.5332 41.6984Z" fill="url(#paint1_linear_5991_38800)"/>
<path fill-rule="evenodd" clip-rule="evenodd" d="M0 6.49948C0 3.26695 2.63413 0.632812 5.86667 0.632812H25.4907C27.1392 0.632812 28.6939 1.33095 29.788 2.48375L29.8056 2.50428L42.4541 16.2968C43.5072 17.4203 44 18.8899 44 20.2861V50.4995C44 53.732 41.3659 56.3661 38.1333 56.3661H5.86667C2.63413 56.3661 0 53.732 0 50.4995V6.49948ZM25.4877 6.49948H5.86667V50.4995H38.1333V20.2627L25.5317 6.52001L25.5229 6.51708C25.5122 6.50932 25.5004 6.50337 25.4877 6.49948Z" fill="url(#paint2_linear_5991_38800)"/>
<path fill-rule="evenodd" clip-rule="evenodd" d="M25.49 0.632812C26.2679 0.632813 27.014 0.941859 27.5642 1.49197C28.1143 2.04207 28.4233 2.78818 28.4233 3.56615V17.3528H41.066C41.4512 17.3528 41.8326 17.4287 42.1885 17.5761C42.5444 17.7235 42.8678 17.9396 43.1402 18.212C43.4125 18.4844 43.6286 18.8077 43.776 19.1636C43.9234 19.5195 43.9993 19.9009 43.9993 20.2861C43.9993 20.6714 43.9234 21.0528 43.776 21.4087C43.6286 21.7646 43.4125 22.0879 43.1402 22.3603C42.8678 22.6327 42.5444 22.8488 42.1885 22.9962C41.8326 23.1436 41.4512 23.2195 41.066 23.2195H25.49C24.712 23.2195 23.9659 22.9104 23.4158 22.3603C22.8657 21.8102 22.5566 21.0641 22.5566 20.2861V3.56615C22.5566 2.78818 22.8657 2.04207 23.4158 1.49197C23.9659 0.941859 24.712 0.632813 25.49 0.632812Z" fill="url(#paint3_linear_5991_38800)"/>
<defs>
<linearGradient id="paint0_linear_5991_38800" x1="12.7308" y1="15.1784" x2="18.8208" y2="15.2186" gradientUnits="userSpaceOnUse">
<stop stop-color="#CE6800"/>
<stop offset="1" stop-color="#9747FF"/>
</linearGradient>
<linearGradient id="paint1_linear_5991_38800" x1="10.1509" y1="32.8208" x2="35.7771" y2="32.9885" gradientUnits="userSpaceOnUse">
<stop stop-color="#CE6800"/>
<stop offset="1" stop-color="#9747FF"/>
</linearGradient>
<linearGradient id="paint2_linear_5991_38800" x1="1.09009" y1="31.778" x2="46.3135" y2="32.0133" gradientUnits="userSpaceOnUse">
<stop stop-color="#CE6800"/>
<stop offset="1" stop-color="#9747FF"/>
</linearGradient>
<linearGradient id="paint3_linear_5991_38800" x1="23.0879" y1="13.2548" x2="45.1265" y2="13.3927" gradientUnits="userSpaceOnUse">
<stop stop-color="#CE6800"/>
<stop offset="1" stop-color="#9747FF"/>
</linearGradient>
</defs>
</svg>
