<svg width="64" height="65" viewBox="0 0 64 65" fill="none" xmlns="http://www.w3.org/2000/svg">
<path fill-rule="evenodd" clip-rule="evenodd" d="M5.33203 32.4987V21.832C5.33203 14.2907 5.33203 10.5174 7.67603 8.17603C10.0174 5.83203 13.7907 5.83203 21.332 5.83203H42.6654C50.2067 5.83203 53.98 5.83203 56.3214 8.17603C58.6654 10.5174 58.6654 14.2907 58.6654 21.832V32.4987C58.6654 40.04 58.6654 43.8134 56.3214 46.1547C54.5987 47.88 52.1027 48.336 47.9 48.456C47.8911 46.4355 47.1665 44.4835 45.8547 42.9467C45.7777 42.8567 45.731 42.7447 45.7214 42.6267C45.5598 40.5982 44.6809 38.6935 43.2422 37.2543C41.8035 35.8151 39.8992 34.9356 37.8707 34.7734C37.7526 34.7639 37.6406 34.7172 37.5507 34.64C36.0019 33.3202 34.0336 32.5953 31.9987 32.5953C29.9638 32.5953 27.9955 33.3202 26.4467 34.64C26.3568 34.7172 26.2448 34.7639 26.1267 34.7734C24.0977 34.935 22.1927 35.8143 20.7535 37.2535C19.3143 38.6927 18.435 40.5977 18.2734 42.6267C18.2639 42.7448 18.2172 42.8568 18.14 42.9467C16.8292 44.4839 16.1055 46.4358 16.0974 48.456C11.8947 48.336 9.3987 47.88 7.67603 46.1547C5.33203 43.8134 5.33203 40.04 5.33203 32.4987ZM21.9987 16.4987C21.9987 15.9683 22.2094 15.4596 22.5845 15.0845C22.9596 14.7094 23.4683 14.4987 23.9987 14.4987H39.9987C40.5291 14.4987 41.0378 14.7094 41.4129 15.0845C41.788 15.4596 41.9987 15.9683 41.9987 16.4987C41.9987 17.0291 41.788 17.5378 41.4129 17.9129C41.0378 18.288 40.5291 18.4987 39.9987 18.4987H23.9987C23.4683 18.4987 22.9596 18.288 22.5845 17.9129C22.2094 17.5378 21.9987 17.0291 21.9987 16.4987ZM18.6654 23.832C18.1349 23.832 17.6262 24.0427 17.2512 24.4178C16.8761 24.7929 16.6654 25.3016 16.6654 25.832C16.6654 26.3625 16.8761 26.8712 17.2512 27.2462C17.6262 27.6213 18.1349 27.832 18.6654 27.832H45.332C45.8625 27.832 46.3712 27.6213 46.7462 27.2462C47.1213 26.8712 47.332 26.3625 47.332 25.832C47.332 25.3016 47.1213 24.7929 46.7462 24.4178C46.3712 24.0427 45.8625 23.832 45.332 23.832H18.6654Z" fill="url(#paint0_linear_5991_38787)"/>
<path fill-rule="evenodd" clip-rule="evenodd" d="M34.96 37.685C34.1346 36.9807 33.0851 36.5938 32 36.5938C30.9149 36.5938 29.8654 36.9807 29.04 37.685C28.3097 38.3073 27.4017 38.6834 26.4453 38.7597C25.3639 38.8458 24.3486 39.3146 23.5817 40.0819C22.8149 40.8493 22.3467 41.8649 22.2613 42.9464C22.1867 43.901 21.808 44.8077 21.1867 45.541C20.4837 46.3661 20.0977 47.4145 20.0977 48.4984C20.0977 49.5822 20.4837 50.6307 21.1867 51.4557C21.8107 52.1864 22.1867 53.0957 22.2613 54.0504C22.3468 55.1323 22.8154 56.1482 23.5828 56.9156C24.3502 57.683 25.3661 58.1516 26.448 58.237C27.4027 58.3117 28.312 58.6877 29.0427 59.309C29.8677 60.012 30.9161 60.398 32 60.398C33.0839 60.398 34.1323 60.012 34.9573 59.309C35.6876 58.6868 36.5956 58.3107 37.552 58.2344C38.6335 58.149 39.6491 57.6808 40.4164 56.9139C41.1838 56.1471 41.6526 55.1318 41.7387 54.0504C41.8142 53.0943 42.1894 52.1863 42.8107 51.4557C43.5143 50.6305 43.9008 49.5815 43.9008 48.497C43.9008 47.4126 43.5143 46.3636 42.8107 45.5384C42.1884 44.8081 41.8123 43.9001 41.736 42.9437C41.65 41.8627 41.1816 40.8477 40.4148 40.0809C39.648 39.3141 38.633 38.8457 37.552 38.7597C36.5956 38.6834 35.6903 38.3073 34.96 37.685ZM37.3653 47.293C37.5602 47.1145 37.7177 46.8991 37.8287 46.6593C37.9398 46.4195 38.0023 46.1601 38.0125 45.8961C38.0228 45.632 37.9806 45.3685 37.8884 45.1209C37.7962 44.8732 37.6559 44.6463 37.4754 44.4532C37.295 44.2601 37.0781 44.1047 36.8373 43.9959C36.5965 43.8871 36.3365 43.8271 36.0723 43.8194C35.8082 43.8117 35.5451 43.8564 35.2984 43.951C35.0516 44.0456 34.826 44.1881 34.6347 44.3704L30.288 48.429L29.3653 47.5704C28.9767 47.2142 28.4633 47.0259 27.9366 47.0463C27.4098 47.0668 26.9125 47.2943 26.5526 47.6794C26.1928 48.0646 25.9995 48.5762 26.0149 49.1031C26.0303 49.63 26.253 50.1295 26.6347 50.493L28.92 52.6264C29.2904 52.9724 29.7784 53.1649 30.2853 53.1649C30.7922 53.1649 31.2802 52.9724 31.6507 52.6264L37.3653 47.293Z" fill="url(#paint1_linear_5991_38787)"/>
<defs>
<linearGradient id="paint0_linear_5991_38787" x1="6.65335" y1="29.6514" x2="61.4674" y2="30.1035" gradientUnits="userSpaceOnUse">
<stop stop-color="#CE6800"/>
<stop offset="1" stop-color="#9747FF"/>
</linearGradient>
<linearGradient id="paint1_linear_5991_38787" x1="20.6874" y1="49.8962" x2="45.152" y2="50.0575" gradientUnits="userSpaceOnUse">
<stop stop-color="#CE6800"/>
<stop offset="1" stop-color="#9747FF"/>
</linearGradient>
</defs>
</svg>
