<svg width="64" height="65" viewBox="0 0 64 65" fill="none" xmlns="http://www.w3.org/2000/svg">
<path fill-rule="evenodd" clip-rule="evenodd" d="M5.33398 32.4987V21.832C5.33398 14.2907 5.33398 10.5174 7.67798 8.17603C10.0193 5.83203 13.7927 5.83203 21.334 5.83203H42.6673C50.2086 5.83203 53.982 5.83203 56.3233 8.17603C58.6673 10.5174 58.6673 14.2907 58.6673 21.832V32.4987C58.6673 40.04 58.6673 43.8134 56.3233 46.1547C54.6006 47.88 52.1046 48.336 47.902 48.456C47.8931 46.4355 47.1684 44.4835 45.8566 42.9467C45.7796 42.8567 45.733 42.7447 45.7233 42.6267C45.5618 40.5982 44.6829 38.6935 43.2442 37.2543C41.8055 35.8151 39.9011 34.9356 37.8726 34.7734C37.7546 34.7639 37.6425 34.7172 37.5526 34.64C36.0038 33.3202 34.0355 32.5953 32.0006 32.5953C29.9658 32.5953 27.9975 33.3202 26.4487 34.64C26.3588 34.7172 26.2467 34.7639 26.1287 34.7734C24.0997 34.935 22.1947 35.8143 20.7555 37.2535C19.3162 38.6927 18.4369 40.5977 18.2753 42.6267C18.2658 42.7448 18.2192 42.8568 18.142 42.9467C16.8312 44.4839 16.1075 46.4358 16.0993 48.456C11.8967 48.336 9.40065 47.88 7.67798 46.1547C5.33398 43.8134 5.33398 40.04 5.33398 32.4987ZM22.0007 16.4987C22.0007 15.9683 22.2114 15.4596 22.5864 15.0845C22.9615 14.7094 23.4702 14.4987 24.0007 14.4987H40.0006C40.5311 14.4987 41.0398 14.7094 41.4149 15.0845C41.7899 15.4596 42.0006 15.9683 42.0006 16.4987C42.0006 17.0291 41.7899 17.5378 41.4149 17.9129C41.0398 18.288 40.5311 18.4987 40.0006 18.4987H24.0007C23.4702 18.4987 22.9615 18.288 22.5864 17.9129C22.2114 17.5378 22.0007 17.0291 22.0007 16.4987ZM18.6673 23.832C18.1369 23.832 17.6282 24.0427 17.2531 24.4178C16.878 24.7929 16.6673 25.3016 16.6673 25.832C16.6673 26.3625 16.878 26.8712 17.2531 27.2462C17.6282 27.6213 18.1369 27.832 18.6673 27.832H45.334C45.8644 27.832 46.3731 27.6213 46.7482 27.2462C47.1233 26.8712 47.334 26.3625 47.334 25.832C47.334 25.3016 47.1233 24.7929 46.7482 24.4178C46.3731 24.0427 45.8644 23.832 45.334 23.832H18.6673Z" fill="url(#paint0_linear_5991_38793)"/>
<path fill-rule="evenodd" clip-rule="evenodd" d="M34.96 37.685C34.1346 36.9807 33.0851 36.5938 32 36.5938C30.9149 36.5938 29.8654 36.9807 29.04 37.685C28.3097 38.3073 27.4017 38.6834 26.4453 38.7597C25.3639 38.8458 24.3486 39.3146 23.5817 40.0819C22.8149 40.8493 22.3467 41.8649 22.2613 42.9464C22.1867 43.901 21.808 44.8077 21.1867 45.541C20.4837 46.3661 20.0977 47.4145 20.0977 48.4984C20.0977 49.5822 20.4837 50.6307 21.1867 51.4557C21.8107 52.1864 22.1867 53.0957 22.2613 54.0504C22.3468 55.1323 22.8154 56.1482 23.5828 56.9156C24.3502 57.683 25.3661 58.1516 26.448 58.237C27.4027 58.3117 28.312 58.6877 29.0427 59.309C29.8677 60.012 30.9161 60.398 32 60.398C33.0839 60.398 34.1323 60.012 34.9573 59.309C35.6876 58.6868 36.5956 58.3107 37.552 58.2344C38.6335 58.149 39.6491 57.6808 40.4164 56.9139C41.1838 56.1471 41.6526 55.1318 41.7387 54.0504C41.8142 53.0943 42.1894 52.1863 42.8107 51.4557C43.5143 50.6305 43.9008 49.5815 43.9008 48.497C43.9008 47.4126 43.5143 46.3636 42.8107 45.5384C42.1884 44.8081 41.8123 43.9001 41.736 42.9437C41.65 41.8627 41.1816 40.8477 40.4148 40.0809C39.648 39.3141 38.633 38.8457 37.552 38.7597C36.5956 38.6834 35.6903 38.3073 34.96 37.685ZM37.3653 47.293C37.5602 47.1145 37.7177 46.8991 37.8287 46.6593C37.9398 46.4195 38.0023 46.1601 38.0125 45.8961C38.0228 45.632 37.9806 45.3685 37.8884 45.1209C37.7962 44.8732 37.6559 44.6463 37.4754 44.4532C37.295 44.2601 37.0781 44.1047 36.8373 43.9959C36.5965 43.8871 36.3365 43.8271 36.0723 43.8194C35.8082 43.8117 35.5451 43.8564 35.2984 43.951C35.0516 44.0456 34.826 44.1881 34.6347 44.3704L30.288 48.429L29.3653 47.5704C28.9767 47.2142 28.4633 47.0259 27.9366 47.0463C27.4098 47.0668 26.9125 47.2943 26.5526 47.6794C26.1928 48.0646 25.9995 48.5762 26.0149 49.1031C26.0303 49.63 26.253 50.1295 26.6347 50.493L28.92 52.6264C29.2904 52.9724 29.7784 53.1649 30.2853 53.1649C30.7922 53.1649 31.2802 52.9724 31.6507 52.6264L37.3653 47.293Z" fill="url(#paint1_linear_5991_38793)"/>
<circle cx="32" cy="48.5" r="10" fill="white"/>
<g clip-path="url(#clip0_5991_38793)">
<path d="M32 38.5C30.0222 38.5 28.0888 39.0865 26.4443 40.1853C24.7998 41.2841 23.5181 42.8459 22.7612 44.6732C22.0043 46.5004 21.8063 48.5111 22.1922 50.4509C22.578 52.3907 23.5304 54.1725 24.9289 55.5711C26.3275 56.9696 28.1093 57.922 30.0491 58.3079C31.9889 58.6937 33.9996 58.4957 35.8268 57.7388C37.6541 56.9819 39.2159 55.7002 40.3147 54.0557C41.4135 52.4112 42 50.4778 42 48.5C42 45.8478 40.9464 43.3043 39.0711 41.4289C37.1957 39.5536 34.6522 38.5 32 38.5ZM24 48.5C24.0039 46.7244 24.5985 45.0005 25.69 43.6L36.9 54.81C35.7181 55.7258 34.3032 56.2921 32.8157 56.4445C31.3283 56.597 29.828 56.3296 28.4848 55.6726C27.1417 55.0156 26.0095 53.9953 25.2168 52.7276C24.4241 51.4598 24.0026 49.9952 24 48.5ZM38.31 53.4L27.1 42.19C28.6402 41.0194 30.5523 40.4466 32.4824 40.5775C34.4125 40.7085 36.2298 41.5344 37.5977 42.9023C38.9656 44.2702 39.7915 46.0875 39.9225 48.0176C40.0534 49.9477 39.4806 51.8598 38.31 53.4Z" fill="#EB5757"/>
</g>
<defs>
<linearGradient id="paint0_linear_5991_38793" x1="6.65531" y1="29.6514" x2="61.4693" y2="30.1035" gradientUnits="userSpaceOnUse">
<stop stop-color="#CE6800"/>
<stop offset="1" stop-color="#9747FF"/>
</linearGradient>
<linearGradient id="paint1_linear_5991_38793" x1="20.6874" y1="49.8962" x2="45.152" y2="50.0575" gradientUnits="userSpaceOnUse">
<stop stop-color="#CE6800"/>
<stop offset="1" stop-color="#9747FF"/>
</linearGradient>
<clipPath id="clip0_5991_38793">
<rect width="20" height="20" fill="white" transform="translate(22 38.5)"/>
</clipPath>
</defs>
</svg>
